<svg width="90" height="300" xmlns="http://www.w3.org/2000/svg">
    <!-- Created with Method Draw - http://github.com/duopixel/Method-Draw/ -->
    <g>
        <title>background</title>
        <rect fill="#ffffff00" id="canvas_background" height="302" width="92" y="-1" x="-1"/>
        <g display="none" overflow="visible" y="0" x="0" height="100%" width="100%" id="canvasGrid">
            <rect fill="url(#gridpattern)" stroke-width="0" y="0" x="0" height="100%" width="100%"/>
        </g>
    </g>
    <g>
        <title>Layer 1</title>
        <style transform="matrix(0.05016556281393836,0,0,0.05016556281393836,0,0) " type="text/css">
            .st0{fill:#100D0D;}
        </style>
        <g stroke="null" id="svg_5">
            <path transform="rotate(-90 45.00002288818363,151.31481933593753) " stroke="null" id="svg_4"
                  d="m192.718469,133.515438c-0.090451,-0.090451 -0.271352,-0.090451 -0.271352,0c-0.090451,0.271352 -0.090451,0.633156 -0.090451,0.904508c-6.422007,7.416966 -15.014834,9.587786 -24.059915,12.029958c0,0 -0.090451,-0.090451 -0.180902,-0.090451c-12.844015,0.452254 -25.054874,-0.090451 -37.446635,-3.527582c-7.507417,-2.080369 -14.743482,-4.884344 -21.979547,-7.77877c0,-0.090451 -0.090451,-0.271352 -0.180902,-0.271352c-0.271352,-0.090451 -0.542705,-0.090451 -0.814057,-0.090451l-10.854097,-4.341639c-0.452254,-0.180902 -0.994959,-0.361803 -1.447213,-0.542705c-0.090451,-0.090451 -0.180902,-0.180902 -0.271352,-0.090451c-4.070286,-1.537664 -8.140573,-3.075328 -12.30131,-4.52254c0,-0.090451 -0.090451,-0.180902 -0.180902,-0.180902c-2.351721,-1.447213 -4.884344,-2.080369 -7.416966,-2.351721c-0.180902,-0.090451 -0.361803,-0.090451 -0.542705,-0.180902c0.090451,-0.180902 0.090451,-0.452254 -0.180902,-0.452254c-0.904508,-0.180902 -1.809016,-0.361803 -2.713524,-0.452254c-2.26127,-0.723606 -4.52254,-1.356762 -6.783811,-1.989918c0,-0.180902 -0.090451,-0.361803 -0.271352,-0.452254c-0.904508,-0.180902 -1.809016,-0.271352 -2.713524,-0.361803c-5.969753,-1.628115 -11.939507,-2.894426 -17.90926,-3.979836c0,-0.180902 -0.090451,-0.452254 -0.361803,-0.452254l-2.170819,0c-2.351721,-0.361803 -4.703442,-0.633156 -7.055163,-0.904508c0.180902,-0.271352 0.090451,-0.633156 -0.361803,-0.633156c-1.628115,-0.180902 -3.34668,-0.090451 -4.974795,0.180902c-0.904508,-0.090451 -1.809016,-0.090451 -2.803975,-0.180902c-21.25594,-0.994959 -42.42143,3.798934 -62.411059,10.763646c-1.537664,0.180902 -2.984877,0.723606 -4.341639,1.537664c-0.904508,0.361803 -1.718565,0.633156 -2.623073,0.994959c-8.773729,3.34668 -16.642949,8.140573 -24.783522,12.844015c-5.427049,3.165778 -13.658072,7.507417 -15.195736,14.200777l0,0.180902c-7.236065,2.623073 -14.019875,6.060204 -19.989629,11.034999c-0.361803,0.271352 0,0.633156 0.361803,0.542705c6.783811,2.623073 13.929425,-1.447213 19.718276,-4.974795c0.271352,10.582745 13.567621,13.748523 22.069998,15.195736l0.452254,0c0.452254,0.090451 0.814057,0.180902 1.266311,0.180902c0.452254,0.090451 0.542705,-0.723606 0.090451,-0.814057c-0.814057,-0.090451 -1.628115,-0.271352 -2.442172,-0.452254c-0.723606,-0.452254 -1.628115,-0.814057 -1.899467,-0.994959c-2.26127,-1.08541 -4.160737,-2.803975 -5.60795,-4.793893c0.633156,-1.989918 1.628115,-2.351721 3.075328,-1.08541c0.814057,0.542705 1.537664,1.175861 2.170819,1.809016c0.271352,0.271352 0.542705,0.633156 0.904508,0.904508c0.633156,0.723606 1.266311,1.537664 1.899467,2.170819c0.271352,0.271352 0.542705,0.633156 0.814057,0.904508c4.43209,4.974795 10.763646,3.979836 16.7334,3.075328l0.723606,0c0.180902,0 0.271352,-0.090451 0.361803,-0.180902c0.271352,0 0.542705,-0.090451 0.904508,-0.090451c0.271352,0 0.271352,-0.361803 0,-0.452254l-0.814057,0c-0.090451,-0.180902 -0.180902,-0.271352 -0.452254,-0.271352c-4.160737,-0.090451 -8.050122,-2.623073 -10.944548,-5.427049c-1.356762,-1.356762 -2.623073,-3.075328 0.090451,-2.442172c0.994959,0.452254 1.989918,0.814057 2.984877,1.08541c1.809016,0.814057 3.618032,1.718565 5.427049,2.623073c3.437131,1.809016 6.602909,4.160737 10.311392,5.517499c3.798934,1.356762 8.231024,1.628115 12.120408,1.175861c0.271352,0 0.271352,-0.452254 0,-0.452254c-2.170819,-0.271352 -4.251188,-0.452254 -6.241106,-0.723606c-9.135532,-3.889385 -12.029958,-12.572663 -17.366555,-20.532334c-1.08541,-1.537664 -4.703442,-7.145614 -7.77877,-8.140573c1.175861,-0.361803 2.351721,-0.723606 3.618032,-0.994959c8.502376,2.623073 12.029958,14.381679 17.728359,20.441883c4.703442,4.974795 10.944548,8.773729 17.728359,9.768687c-0.542705,0.090451 -1.08541,0.180902 -1.628115,0.180902c-1.809016,0.180902 -3.708483,0.180902 -5.517499,0.542705c-0.090451,0 -0.090451,0.180902 0,0.180902c3.437131,0.452254 7.77877,0.452254 11.2159,-0.633156c0.723606,0 1.447213,-0.090451 2.26127,-0.180902c0.271352,0 0.271352,-0.452254 0,-0.542705l0.633156,0c0.814057,0 1.809016,0.180902 2.713524,0.180902c2.894426,0.723606 5.788852,0.904508 8.683278,0.361803c0.090451,0 0.180902,-0.090451 0.180902,-0.180902l4.884344,0c2.984877,0.723606 7.416966,1.08541 10.220941,-0.361803l0.723606,0c1.08541,0.271352 2.26127,0.271352 3.437131,0.271352c1.537664,0 3.075328,0.361803 4.612991,0.090451c0,0 0.090451,0 0.090451,-0.090451c1.356762,0.452254 2.803975,0.633156 4.160737,0.814057c1.899467,0.271352 4.160737,0.723606 6.150655,0.180902c0.633156,0.180902 1.356762,0.361803 1.899467,0.180902c0.090451,0 0.090451,-0.090451 0.090451,-0.090451c1.718565,0.814057 3.618032,1.356762 5.60795,1.447213c0.090451,0 0.271352,-0.090451 0.271352,-0.180902c1.899467,0.361803 3.889385,0.452254 5.788852,0.180902c1.537664,0.723606 3.256229,1.266311 4.974795,1.537664c1.266311,0.361803 2.713524,0.452254 3.979836,0.633156c2.26127,0.361803 4.160737,1.356762 6.331557,1.809016l0.180902,0c0.542705,0.180902 1.08541,0.361803 1.628115,0.452254c0,0 -0.090451,0.090451 0,0.090451c1.447213,1.266311 3.527582,1.809016 5.427049,2.080369c1.809016,0.271352 4.160737,0.633156 6.060204,0.090451c1.266311,0.452254 2.713524,0.904508 4.251188,1.08541c0.814057,0.271352 1.718565,0.361803 2.623073,0.542705c1.08541,0.180902 2.080369,0.452254 3.165778,0.452254c3.256229,1.447213 6.874262,1.809016 10.492294,1.537664c2.170819,0.542705 5.246147,0.542705 7.145614,-0.452254c2.894426,0.542705 6.060204,0.361803 8.502376,-0.090451c0.090451,0 0.180902,-0.090451 0.180902,-0.271352c5.336598,-0.452254 11.12545,-1.628115 15.467088,-4.43209c2.984877,-0.271352 5.879303,-1.175861 8.683278,-3.075328c0.090451,-0.090451 0.180902,-0.180902 0.180902,-0.271352l0.090451,0c0.633156,-0.180902 1.447213,-0.271352 1.989918,-0.633156c0.180902,-0.090451 0.180902,-0.271352 0.180902,-0.361803c5.155696,-0.090451 10.311392,-3.798934 13.658072,-7.507417c0.452254,-0.271352 0.904508,-0.542705 1.266311,-0.904508c0.180902,-0.090451 0.180902,-0.271352 0.090451,-0.452254c5.427049,-1.08541 10.311392,-4.43209 14.653031,-8.592827c0.542705,-0.271352 0.994959,-0.633156 1.447213,-1.08541c0.633156,-0.723606 1.447213,-1.628115 1.809016,-2.442172c2.532623,-1.356762 4.793893,-3.256229 6.602909,-5.60795c0.090451,-0.090451 0.180902,-0.180902 0.180902,-0.271352c0.542705,-0.633156 1.08541,-1.356762 1.08541,-2.170819c0,-0.090451 0,-0.180902 -0.090451,-0.180902c3.256229,-2.080369 6.060204,-4.974795 7.77877,-9.045081l0,-0.090451c0.090451,-0.271352 0.271352,-0.542705 0.361803,-0.904508c0.452254,-1.08541 1.08541,-2.351721 0.994959,-3.618032c0.271352,-1.175861 0.361803,-2.532623 -0.180902,-3.618032zm-35.366267,14.200777c-3.256229,1.08541 -6.150655,2.984877 -9.768687,3.437131c-2.984877,0.361803 -5.879303,0.271352 -8.773729,1.08541c-0.542705,-0.090451 -1.08541,-0.090451 -1.628115,-0.180902c-3.256229,-0.271352 -6.512458,-0.723606 -9.678237,-1.356762c5.698401,-0.271352 12.029958,-0.542705 16.7334,-3.889385c4.43209,0.633156 8.773729,0.904508 13.115367,0.904508zm-21.979547,-2.532623c2.623073,0.633156 5.155696,1.175861 7.86922,1.537664c-5.60795,2.26127 -11.034999,2.894426 -17.185654,3.527582c-0.180902,0 -0.271352,0.090451 -0.271352,0.180902c-5.788852,-1.08541 -11.487253,-2.532623 -17.185654,-3.979836c-0.361803,-0.180902 -0.723606,-0.271352 -1.08541,-0.452254c4.793893,-0.090451 9.587786,0.814057 14.291228,1.266311c4.070286,0.361803 9.949589,0.904508 13.38672,-1.809016c0.180902,-0.090451 0.180902,-0.180902 0.180902,-0.271352zm-1.809016,-0.452254c0.452254,0.090451 0.814057,0.180902 1.266311,0.361803c-4.884344,1.266311 -9.225983,1.628115 -14.291228,1.175861c-4.612991,-0.361803 -9.225983,-1.08541 -13.838974,-0.723606c-0.090451,0 -0.090451,0 -0.180902,0.090451c-2.894426,-1.08541 -5.879303,-2.080369 -8.864179,-2.984877c9.859138,-2.532623 20.351432,3.256229 30.029669,0.361803c1.809016,0.542705 3.798934,1.175861 5.879303,1.718565zm-19.446924,-6.602909c3.889385,1.537664 7.77877,2.984877 11.758605,4.251188c-4.52254,0.180902 -8.773729,0 -13.38672,-0.542705c-5.246147,-0.723606 -10.401843,-1.175861 -15.467088,0.452254c-0.090451,0 -0.090451,0.090451 -0.090451,0.090451c-5.969753,-1.809016 -12.120408,-3.165778 -18.271064,-4.43209c6.874262,-1.175861 13.748523,0.994959 20.441883,1.989918c4.703442,0.633156 10.944548,1.266311 15.014834,-1.809016zm-6.422007,-2.532623l5.427049,2.170819c-2.984877,0.723606 -5.60795,1.447213 -8.773729,1.447213c-3.437131,0 -6.874262,-0.723606 -10.311392,-1.266311c-5.517499,-0.814057 -11.034999,-1.899467 -16.552498,-0.723606c-0.180902,0 -0.271352,0.180902 -0.271352,0.271352c-3.256229,-0.633156 -6.512458,-1.266311 -9.768687,-1.899467c5.788852,-2.803975 12.572663,-2.080369 18.813768,-1.447213c6.783811,0.723606 14.743482,2.713524 21.436842,1.447213zm-12.663113,-5.065245c1.989918,0.814057 4.070286,1.537664 6.060204,2.351721l3.256229,1.356762c-6.331557,-0.723606 -13.024917,-0.723606 -19.356473,-1.175861c-6.150655,-0.452254 -12.844015,-0.814057 -18.451965,2.26127c-0.090451,0.090451 -0.180902,0.090451 -0.180902,0.180902c-2.984877,-0.542705 -5.879303,-1.08541 -8.864179,-1.628115c-1.175861,-0.180902 -2.351721,-0.452254 -3.527582,-0.633156c6.783811,-2.894426 14.381679,-2.894426 21.617743,-2.532623c6.060204,0.361803 13.748523,2.623073 19.446924,-0.180902zm-11.668154,-4.341639c3.34668,1.175861 6.69336,2.442172 9.949589,3.708483c-3.075328,0.361803 -6.060204,0.723606 -9.225983,0.542705c-3.708483,-0.180902 -7.326516,-0.814057 -11.034999,-0.814057c-6.602909,-0.090451 -14.110326,0 -19.899178,3.527582c-3.256229,-0.633156 -6.602909,-1.175861 -9.859138,-1.718565c4.341639,-4.341639 12.934466,-3.798934 18.632867,-4.070286c6.602909,-0.361803 15.286187,1.718565 21.436842,-1.175861zm-22.612702,-0.814057c6.241106,-0.542705 11.939507,-1.989918 17.818809,-0.814057c1.08541,0.361803 2.170819,0.723606 3.256229,1.08541c-7.688319,0.542705 -15.376638,0.361803 -23.155407,0.814057c-4.884344,0.271352 -12.753564,0.452254 -15.919342,4.793893c-2.894426,-0.452254 -5.698401,-0.814057 -8.683278,-0.994959c4.43209,-3.437131 10.130491,-4.160737 15.557539,-5.246147c4.160737,-0.814057 8.231024,-1.628115 12.391761,-2.080369c2.532623,-0.271352 5.065245,-0.271352 7.597868,-0.271352c-3.075328,0.361803 -6.150655,1.175861 -9.045081,2.080369c-0.180902,0.090451 -0.180902,0.633156 0.180902,0.633156zm2.713524,-5.427049c1.718565,0.452254 3.437131,0.994959 5.155696,1.447213c-6.331557,0 -13.115367,1.809016 -18.99467,2.984877c-5.065245,1.08541 -12.663113,1.175861 -16.009793,5.879303c-1.266311,-0.090451 -2.532623,-0.180902 -3.708483,-0.180902c-2.713524,-0.090451 -5.427049,-0.090451 -8.140573,0c4.341639,-4.341639 10.582745,-5.60795 16.371597,-6.874262c3.34668,-0.723606 6.602909,-1.537664 9.949589,-2.170819c5.155696,-1.266311 10.130491,-1.08541 15.376638,-1.08541zm-9.045081,-1.809016c0.271352,0 0.361803,-0.180902 0.452254,-0.361803c1.08541,0.271352 2.26127,0.542705 3.34668,0.814057c-7.145614,0.180902 -14.653031,2.623073 -21.346391,4.160737c-4.43209,0.994959 -13.567621,2.351721 -15.557539,7.326516c-3.979836,0.090451 -7.86922,0.361803 -11.849056,0.723606c3.437131,-5.517499 11.939507,-7.236065 17.728359,-8.864179c9.045081,-2.532623 17.90926,-3.979836 27.225694,-3.798934zm-3.618032,-1.266311l-2.170819,0c0.090451,-0.090451 0.090451,-0.271352 -0.090451,-0.361803c-0.090451,-0.090451 -0.180902,-0.090451 -0.271352,-0.090451c0.814057,0.180902 1.628115,0.271352 2.532623,0.452254zm-19.989629,-2.803975c0.542705,0 1.08541,0.090451 1.628115,0.090451c1.628115,0.180902 3.34668,0.361803 4.974795,0.542705c-5.879303,0.814057 -11.758605,2.713524 -17.276105,4.703442c-6.783811,2.532623 -14.110326,6.150655 -18.99467,11.668154c7.416966,-6.422007 16.190695,-10.854097 25.597579,-13.38672c0,0.090451 0.090451,0.180902 0.180902,0.180902c3.527582,-0.904508 6.964712,-1.628115 10.582745,-1.809016c3.527582,-0.180902 6.783811,0.452254 10.220941,0.904508c-7.597868,0.271352 -15.467088,2.803975 -22.431801,4.884344c-4.160737,1.266311 -15.014834,3.618032 -16.100244,8.95463c-3.527582,0.361803 -6.964712,0.723606 -10.492294,1.175861c-2.532623,0.361803 -5.065245,0.633156 -7.688319,1.08541c4.612991,-5.155696 10.492294,-8.231024 16.7334,-10.944548c7.688319,-3.527582 15.014834,-6.69336 23.064956,-8.050122zm-5.246147,-0.271352c-5.879303,1.628115 -11.758605,4.974795 -16.914301,7.145614c-6.331557,2.713524 -14.291228,6.060204 -18.090162,12.120408c-2.623073,0.361803 -5.246147,0.814057 -7.959671,1.266311c4.612991,-5.788852 10.673196,-10.401843 17.004752,-14.110326c6.512458,-3.798934 12.844015,-5.427049 19.989629,-6.512458c1.989918,-0.090451 3.979836,0 5.969753,0.090451zm-27.677948,1.809016c-5.427049,2.351721 -10.311392,6.964712 -14.833933,10.401843c-1.356762,1.08541 -10.130491,7.145614 -8.321474,9.587786c5.879303,-7.86922 14.653031,-14.653031 23.698112,-18.99467c-2.080369,1.175861 -4.070286,2.623073 -5.698401,4.251188c-0.180902,0.180902 0.090451,0.542705 0.361803,0.452254c2.803975,-1.718565 5.336598,-3.618032 8.321474,-5.065245c2.623073,-1.266311 5.336598,-1.628115 8.140573,-1.989918c0.814057,-0.090451 1.628115,-0.090451 2.442172,-0.180902c-4.070286,1.266311 -8.050122,3.34668 -11.396802,5.065245c-6.964712,3.708483 -13.838974,8.864179 -18.542416,15.286187c-4.974795,0.904508 -10.04004,1.809016 -15.014834,2.984877c5.336598,-9.497335 15.64799,-14.653031 24.331268,-20.532334c2.170819,-0.452254 4.341639,-0.904508 6.512458,-1.266311zm-9.406884,1.809016c-0.090451,0 -0.090451,0.090451 -0.180902,0.090451l-0.180902,0c0.180902,0 0.271352,-0.090451 0.361803,-0.090451zm-12.210859,8.773729c-3.618032,3.075328 -8.231024,6.783811 -10.04004,11.396802c-2.080369,0.452254 -4.251188,0.994959 -6.331557,1.537664c2.442172,-4.251188 5.969753,-7.688319 9.678237,-11.034999c1.537664,-1.356762 3.165778,-2.713524 4.793893,-3.979836c-0.994959,1.08541 -1.989918,2.26127 -2.713524,3.34668c-0.180902,0.271352 0.180902,0.452254 0.361803,0.271352c4.703442,-4.703442 8.773729,-8.411925 15.195736,-9.587786c-3.979836,2.26127 -7.688319,5.246147 -10.944548,8.050122zm-3.889385,-4.52254c1.989918,-0.633156 3.889385,-1.175861 5.879303,-1.718565c-3.165778,1.899467 -6.150655,4.703442 -8.592827,6.783811c-3.889385,3.34668 -9.045081,7.416966 -10.763646,12.482212c-2.26127,0.633156 -4.52254,1.175861 -6.783811,1.899467c4.974795,-8.592827 11.2159,-15.105285 20.260981,-19.446924zm-6.060204,1.989918c-0.271352,0.180902 -0.452254,0.271352 -0.723606,0.452254c-0.090451,-0.090451 -0.090451,-0.090451 -0.180902,-0.090451l-0.090451,0c0.361803,-0.090451 0.723606,-0.271352 0.994959,-0.361803zm-8.95463,4.070286c-1.537664,1.537664 -2.894426,3.34668 -3.979836,4.974795c-0.180902,0.271352 0.180902,0.452254 0.361803,0.271352c3.708483,-3.256229 5.788852,-7.597868 11.034999,-8.411925c-5.698401,4.070286 -10.311392,10.854097 -13.296269,16.371597c-0.090451,0.090451 0,0.180902 0,0.271352c-1.989918,0.542705 -3.889385,1.175861 -5.788852,1.809016c2.803975,-5.698401 6.512458,-11.487253 11.668154,-15.286187zm-2.803975,0.542705c0.542705,-0.271352 1.08541,-0.452254 1.628115,-0.723606c-0.723606,0.633156 -1.447213,1.356762 -2.170819,1.989918c-3.798934,3.889385 -6.874262,8.683278 -9.045081,13.658072l0,0.090451c-0.723606,0.271352 -1.447213,0.452254 -2.170819,0.723606c-1.899467,0.633156 -3.708483,1.356762 -5.60795,1.989918c2.442172,-2.532623 4.251188,-5.698401 6.331557,-8.502376c3.075328,-4.160737 6.512458,-6.69336 10.944548,-9.135532c0.090451,0.090451 0.090451,0 0.090451,-0.090451zm-12.210859,6.241106c0.090451,-0.090451 0.090451,-0.090451 0.090451,-0.180902c2.080369,-1.175861 4.251188,-2.26127 6.331557,-3.34668c-5.155696,3.889385 -9.045081,10.401843 -12.210859,15.376638c-2.170819,0.814057 -4.341639,1.537664 -6.602909,2.351721c2.803975,-6.150655 6.602909,-10.673196 12.391761,-14.200777zm-10.763646,5.879303c1.718565,-0.994959 3.437131,-1.809016 4.884344,-2.713524c-3.165778,3.075328 -5.517499,7.507417 -6.964712,11.2159c-1.899467,0.633156 -3.798934,1.356762 -5.698401,1.989918c1.266311,-1.899467 2.351721,-3.889385 3.618032,-5.879303c1.175861,-1.809016 2.623073,-3.256229 4.160737,-4.612991zm-2.080369,1.08541c-2.623073,2.713524 -4.43209,6.241106 -6.422007,9.316433c-0.090451,0.090451 -0.090451,0.180902 0,0.271352c-1.718565,0.633156 -3.527582,1.266311 -5.246147,1.899467c1.447213,-4.793893 6.602909,-8.502376 11.668154,-11.487253zm5.336598,31.929136c0.090451,0 0.090451,0.090451 0.180902,0.090451c-8.050122,-1.718565 -16.7334,-4.974795 -17.366555,-13.929425c0.180902,-0.180902 0.452254,-0.271352 0.633156,-0.452254c0.361803,-0.180902 0.723606,-0.361803 0.994959,-0.633156c2.623073,3.527582 4.160737,8.050122 7.959671,10.492294c0.090451,0.090451 0.271352,-0.090451 0.180902,-0.180902c-3.165778,-3.165778 -4.884344,-7.145614 -7.688319,-10.582745c0.361803,-0.271352 0.814057,-0.452254 1.175861,-0.723606c0.090451,0.090451 0.090451,0.180902 0.271352,0.180902c7.86922,1.809016 5.879303,14.56258 13.658072,15.738441zm-5.336598,-7.77877c-0.090451,0 -0.180902,0.090451 -0.271352,0.180902c-0.271352,-0.814057 -0.633156,-1.628115 -0.904508,-2.442172c-1.356762,-3.075328 -3.075328,-5.517499 -6.422007,-6.331557c0.814057,-0.452254 1.628115,-0.814057 2.351721,-1.266311c4.341639,0.361803 6.422007,4.43209 8.411925,7.86922c0.542705,0.904508 1.175861,1.899467 1.718565,2.803975c-1.266311,-0.814057 -2.894426,-1.266311 -4.884344,-0.814057zm24.150366,10.130491c-1.628115,0.180902 -3.256229,0.452254 -4.884344,0.452254c-4.341639,0.180902 -7.236065,-2.351721 -9.768687,-5.427049c-0.452254,-0.542705 -0.994959,-1.08541 -1.447213,-1.628115c-2.080369,-3.075328 -4.341639,-6.150655 -6.331557,-9.225983c-1.537664,-2.26127 -3.256229,-4.251188 -5.969753,-4.52254c0.904508,-0.452254 1.899467,-0.904508 2.894426,-1.356762c0.361803,0.361803 0.814057,0.542705 1.356762,0.814057c2.532623,1.356762 5.155696,2.442172 7.055163,4.703442s4.251188,4.52254 6.783811,6.150655c-0.180902,0.090451 -0.271352,0.361803 -0.271352,0.542705c0.723606,4.612991 5.879303,8.140573 10.582745,9.497335zm12.120408,-0.904508c0.542705,0.361803 0.994959,0.723606 1.537664,0.994959c-2.713524,-0.633156 -5.427049,-1.628115 -8.140573,-3.34668c-3.34668,-2.080369 -6.783811,-3.798934 -10.401843,-5.155696c-2.442172,-1.447213 -4.974795,-2.532623 -7.236065,-4.341639c-2.170819,-1.718565 -3.708483,-3.979836 -5.698401,-5.698401c-1.447213,-1.266311 -4.160737,-3.075328 -6.422007,-3.798934c2.442172,-1.08541 4.974795,-1.989918 7.507417,-2.894426c0,0.180902 0.180902,0.271352 0.361803,0.361803c7.86922,0.814057 10.130491,8.411925 14.291228,13.838974c3.437131,4.43209 8.683278,8.140573 14.200777,10.04004zm-8.864179,-11.849056c1.718565,3.165778 3.798934,6.783811 6.512458,9.678237c-1.899467,-0.994959 -3.798934,-1.899467 -5.60795,-3.075328c-3.798934,-2.532623 -6.060204,-6.331557 -8.411925,-10.130491c-2.713524,-4.52254 -6.060204,-8.592827 -11.396802,-9.316433c1.628115,-0.542705 3.256229,-1.08541 4.974795,-1.628115c0,0 0.090451,0.090451 0.090451,0c5.336598,-2.080369 11.668154,10.673196 13.838974,14.47213zm-8.592827,-17.004752l-0.180902,0c-0.180902,0 -0.271352,0.090451 -0.271352,0.180902c-8.140573,2.26127 -16.371597,4.43209 -23.788563,8.411925c-7.597868,4.070286 -17.004752,12.934466 -26.230735,10.04004c6.783811,-5.336598 14.47213,-8.683278 22.612702,-11.487253c8.050122,-2.803975 16.100244,-5.788852 24.150366,-8.502376c7.055163,-2.442172 14.200777,-4.43209 21.527293,-6.150655c0.090451,0 0.180902,0 0.271352,-0.090451c11.306351,-2.623073 22.703153,-4.52254 34.099955,-6.060204c9.135532,-1.175861 18.361514,-1.718565 27.587497,-1.628115c8.411925,0.090451 16.642949,1.356762 24.873973,2.803975c0,0.090451 0.180902,0.271352 0.361803,0.180902c0.090451,0 0.090451,0 0.180902,-0.090451c1.899467,0.361803 3.798934,0.633156 5.788852,0.994959c2.351721,0.361803 4.793893,0.814057 7.236065,1.266311c0.090451,0.180902 0.271352,0.361803 0.542705,0.271352c0.090451,0 0.180902,-0.090451 0.180902,-0.090451c3.34668,0.633156 6.69336,1.266311 10.130491,1.899467c0.090451,0.180902 0.180902,0.271352 0.452254,0.180902c0.090451,0 0.271352,0 0.361803,-0.090451c9.497335,1.989918 18.99467,4.43209 27.9493,7.77877c-1.989918,-0.542705 -3.979836,-0.994959 -5.969753,-1.447213c-12.120408,-2.894426 -24.512169,-5.336598 -36.723029,-7.688319c-11.849056,-2.351721 -23.879014,-3.979836 -35.908971,-4.070286c-24.240817,-0.090451 -48.752986,4.43209 -71.908394,11.487253c-2.532623,0.542705 -4.974795,1.266311 -7.326516,1.899467zm40.521963,30.029669c-4.703442,-0.633156 -9.045081,-1.08541 -13.38672,-3.34668c-4.793893,-2.442172 -8.864179,-6.512458 -11.939507,-10.944548c-3.618032,-5.246147 -6.964712,-12.934466 -13.38672,-15.286187c1.989918,-0.542705 3.889385,-1.08541 5.879303,-1.628115c0,0.180902 0.180902,0.452254 0.452254,0.361803c5.60795,-0.814057 9.225983,7.326516 12.30131,10.854097c3.798934,4.341639 7.77877,8.683278 11.939507,12.572663c2.984877,2.803975 6.69336,5.336598 10.763646,6.964712c-0.904508,0.090451 -1.809016,0.180902 -2.623073,0.452254zm11.758605,0.090451c-4.974795,-0.542705 -9.316433,-1.356762 -13.929425,-4.160737c-4.974795,-3.075328 -8.773729,-7.688319 -12.753564,-11.849056c-3.527582,-3.708483 -6.602909,-7.688319 -9.859138,-11.577704c-1.718565,-2.080369 -3.889385,-3.889385 -6.512458,-3.979836c1.899467,-0.542705 3.798934,-0.994959 5.698401,-1.447213c10.311392,1.266311 16.009793,12.029958 21.979547,19.266022c4.793893,5.788852 11.12545,11.668154 18.542416,13.748523l-3.165778,0zm13.115367,0.361803c-1.175861,0.090451 -2.351721,0.090451 -3.527582,0c0,-0.180902 -0.180902,-0.361803 -0.361803,-0.361803c-7.055163,-0.904508 -12.482212,-2.894426 -17.818809,-7.597868c-3.889385,-3.437131 -7.145614,-7.597868 -10.311392,-11.758605c-4.43209,-5.788852 -9.406884,-12.482212 -16.823851,-14.110326c3.34668,-0.814057 6.69336,-1.628115 10.04004,-2.351721c9.406884,2.442172 12.753564,13.296269 18.542416,20.260981c4.974795,5.879303 13.567621,14.019875 22.160448,15.64799c-0.633156,0.090451 -1.266311,0.180902 -1.899467,0.271352zm7.416966,-0.723606c-12.753564,-1.537664 -23.42676,-10.04004 -30.481923,-20.622785c-3.798934,-5.698401 -7.597868,-12.934466 -14.381679,-15.105285c2.080369,-0.452254 4.070286,-0.904508 6.150655,-1.266311c14.653031,3.708483 17.276105,22.34135 27.677948,31.29598c0.180902,0.090451 0.361803,-0.090451 0.180902,-0.180902c-8.502376,-9.587786 -13.567621,-27.225694 -26.86389,-31.29598c0.542705,-0.090451 0.994959,-0.180902 1.537664,-0.271352l0.090451,0c10.04004,1.356762 14.833933,13.296269 19.989629,20.713235c4.070286,5.879303 10.582745,13.838974 17.999711,16.7334l-1.899467,0zm10.311392,0.904508c-1.537664,-0.180902 -3.075328,-0.542705 -4.612991,-0.814057c-2.26127,-1.08541 -4.52254,-1.809016 -6.69336,-2.984877c-2.713524,-1.537664 -5.065245,-3.798934 -7.326516,-6.060204c-3.979836,-4.070286 -7.326516,-8.773729 -10.311392,-13.658072c-3.527582,-5.517499 -8.050122,-14.019875 -15.195736,-15.376638c4.160737,-0.723606 8.231024,-1.447213 12.391761,-1.989918c11.034999,2.351721 12.844015,14.924384 16.914301,23.698112c3.075328,6.69336 8.95463,15.105285 16.642949,17.276105c-0.542705,0 -1.175861,0 -1.809016,-0.090451zm5.698401,0.180902c-0.090451,0 -0.180902,0 -0.180902,-0.090451l-0.090451,-0.090451c-5.788852,-2.080369 -10.04004,-4.43209 -14.110326,-9.135532c-3.798934,-4.43209 -6.060204,-9.949589 -8.140573,-15.376638c-2.713524,-6.964712 -5.788852,-14.291228 -13.115367,-16.552498c3.075328,-0.361803 6.150655,-0.723606 9.225983,-0.994959c0.090451,0.090451 0.180902,0.180902 0.271352,0.180902c11.306351,-0.090451 12.391761,16.371597 14.833933,24.421719c1.899467,6.331557 5.969753,14.019875 12.029958,17.818809c-0.180902,-0.090451 -0.452254,-0.180902 -0.723606,-0.180902zm11.306351,1.718565c-1.537664,0 -3.075328,-0.180902 -4.52254,-0.361803c-6.060204,-2.713524 -10.311392,-5.60795 -13.838974,-11.668154c-2.803975,-4.884344 -3.889385,-10.401843 -5.246147,-15.828892c-1.447213,-5.879303 -4.160737,-14.833933 -10.673196,-16.462047c1.175861,-0.090451 2.26127,-0.180902 3.437131,-0.271352c12.210859,4.160737 10.944548,19.356473 14.200777,29.396513c0.090451,0.180902 0.452254,0.180902 0.361803,-0.090451c-0.994959,-9.045081 -2.713524,-25.597579 -12.844015,-29.486964c0.994959,-0.090451 1.989918,-0.090451 2.894426,-0.090451c0,0.180902 0.180902,0.361803 0.361803,0.271352c10.492294,-0.904508 12.934466,18.542416 14.653031,25.868932c1.628115,7.236065 5.969753,14.743482 12.391761,18.632867c-0.271352,0.090451 -0.723606,0.090451 -1.175861,0.090451zm7.77877,1.266311c-0.904508,-0.361803 -1.809016,-0.723606 -2.623073,-1.08541c0.090451,0 0.271352,-0.090451 0.361803,-0.090451c0.180902,-0.090451 0.090451,-0.271352 0,-0.271352l-1.266311,0c-4.612991,-2.170819 -8.231024,-4.884344 -11.12545,-9.949589c-2.803975,-5.065245 -3.527582,-10.763646 -4.884344,-16.281146c-1.356762,-5.427049 -4.070286,-16.009793 -10.311392,-18.451965l3.075328,0c3.075328,0.180902 5.065245,0.271352 7.597868,2.442172c2.351721,1.989918 3.889385,4.793893 5.246147,7.597868c2.351721,4.884344 4.070286,10.763646 4.070286,16.190695c0,0.180902 0.271352,0.180902 0.271352,0c0.542705,-6.602909 -1.989918,-13.567621 -5.246147,-19.175572c-0.814057,-1.447213 -2.170819,-3.34668 -3.798934,-4.884344c0.090451,0 0.090451,0.090451 0.180902,0.090451c0.090451,0.090451 0.271352,0 0.361803,-0.090451c9.316433,4.884344 11.849056,17.818809 13.658072,27.316144c1.08541,5.788852 2.984877,11.306351 6.874262,15.738441c0.542705,0.633156 1.08541,1.08541 1.809016,1.628115c-1.356762,-0.271352 -2.803975,-0.542705 -4.251188,-0.723606zm19.085121,5.246147c-1.356762,0 -2.713524,-0.271352 -3.979836,-0.633156c0.271352,0.090451 0.361803,-0.271352 0.180902,-0.361803c-1.989918,-1.356762 -4.251188,-1.809016 -6.512458,-2.532623c-4.070286,-1.266311 -6.602909,-4.251188 -8.502376,-7.959671c-2.984877,-5.427049 -3.527582,-11.939507 -4.884344,-17.818809c-1.989918,-8.140573 -5.517499,-18.904219 -14.56258,-21.527293l-0.271352,0c-0.180902,-0.090451 -0.271352,-0.180902 -0.452254,-0.271352c4.703442,0.271352 9.497335,0.904508 14.200777,1.537664c20.984588,6.512458 10.673196,40.25061 27.316144,49.567044c-0.994959,0 -1.809016,0.090451 -2.532623,0zm12.120408,1.718565c-0.633156,-0.090451 -1.266311,-0.180902 -1.899467,-0.271352c0,-0.090451 -0.090451,-0.090451 -0.180902,-0.180902c-3.165778,-1.175861 -6.241106,-1.809016 -8.95463,-3.979836c-2.26127,-1.809016 -3.889385,-4.341639 -5.155696,-6.874262c-2.713524,-5.427049 -3.527582,-11.758605 -4.703442,-17.637908c-1.718565,-8.502376 -4.251188,-17.728359 -11.939507,-21.798645c2.803975,0.452254 5.698401,0.994959 8.502376,1.537664l2.713524,0.542705c10.944548,5.60795 11.12545,21.708194 13.38672,32.290939c1.08541,5.155696 2.803975,10.401843 6.422007,14.381679c0.723606,0.723606 1.447213,1.356762 2.26127,1.989918c-0.180902,0.090451 -0.361803,0.090451 -0.452254,0zm16.552498,2.170819l-1.175861,0c0,-0.090451 -0.090451,-0.180902 -0.271352,-0.180902c-2.080369,-0.180902 -4.070286,-0.271352 -5.969753,-0.361803c1.08541,0.090451 2.26127,0 3.527582,-0.180902c0.090451,0 0.090451,-0.180902 0,-0.180902c-3.34668,-0.452254 -6.150655,-0.633156 -8.773729,-3.075328c-2.442172,-2.26127 -3.527582,-5.698401 -4.43209,-8.773729c-1.537664,-5.336598 -1.628115,-11.396802 -4.341639,-16.371597c-0.090451,-0.180902 -0.452254,-0.090451 -0.361803,0.180902c2.713524,7.86922 3.165778,27.044792 14.019875,28.492005c-2.170819,-0.180902 -4.341639,-0.633156 -6.512458,-1.718565c-2.803975,-1.447213 -4.793893,-3.979836 -6.241106,-6.602909c-2.984877,-5.246147 -3.889385,-11.668154 -4.974795,-17.547457c-1.537664,-8.592827 -3.165778,-18.904219 -10.763646,-23.969465c3.256229,0.633156 6.512458,1.266311 9.678237,1.989918c11.2159,6.331557 10.311392,21.889096 15.105285,32.38139c2.351721,5.246147 5.336598,11.12545 10.220941,14.47213c0.814057,0.542705 1.809016,0.994959 2.803975,1.356762c-0.452254,-0.090451 -0.994959,0 -1.537664,0.090451zm18.451965,-2.170819c-1.447213,0.361803 -2.984877,0.633156 -4.43209,0.814057c-5.155696,-0.361803 -9.768687,-1.718565 -13.838974,-5.336598s-6.422007,-8.864179 -8.502376,-13.748523c-3.256229,-7.959671 -5.336598,-18.180613 -11.668154,-24.512169c-0.090451,-0.090451 -0.271352,0 -0.180902,0.090451c10.130491,13.929425 11.396802,41.245569 31.29598,43.868643c-0.452254,0.090451 -0.994959,0.090451 -1.447213,0.180902c-4.612991,-0.452254 -8.773729,0.090451 -12.663113,-3.618032c-5.246147,-4.974795 -8.321474,-13.024917 -10.04004,-19.808727c-2.080369,-8.140573 -3.798934,-19.175572 -11.668154,-23.879014c4.160737,0.814057 8.231024,1.718565 12.391761,2.623073c7.77877,9.497335 11.939507,21.25594 19.537375,30.843726c4.43209,5.517499 11.12545,9.678237 17.999711,10.04004c-2.26127,0.994959 -4.43209,1.899467 -6.783811,2.442172zm17.999711,-6.602909c-0.633156,0.180902 -1.356762,0.271352 -1.899467,0.633156c-0.180902,0.090451 -0.180902,0.180902 -0.090451,0.271352c-1.447213,0.361803 -2.894426,0.814057 -4.251188,1.08541c-9.497335,-1.356762 -15.919342,-6.512458 -21.25594,-14.47213c-0.180902,-0.180902 -0.452254,0 -0.361803,0.180902c3.708483,7.145614 11.306351,14.110326 19.718276,14.653031c-3.165778,0.542705 -6.331557,0.542705 -9.768687,-0.723606c-5.60795,-2.080369 -9.768687,-7.145614 -13.024917,-11.939507c-5.788852,-8.321474 -9.406884,-18.451965 -16.190695,-26.049833c2.170819,0.452254 4.341639,0.994959 6.512458,1.447213c2.080369,0.452254 4.160737,0.994959 6.150655,1.537664c10.220941,5.698401 15.828892,17.90926 24.150366,25.868932c3.527582,3.34668 6.331557,6.602909 11.12545,7.145614c-0.361803,0.180902 -0.542705,0.271352 -0.814057,0.361803zm15.376638,-8.231024c-0.271352,0.180902 -0.271352,0.452254 -0.090451,0.633156c-0.904508,0.723606 -1.809016,1.356762 -2.713524,2.080369c-8.411925,-2.170819 -17.276105,-2.984877 -22.522252,-10.854097c-0.090451,-0.180902 -0.452254,-0.090451 -0.361803,0.180902c2.984877,7.597868 14.381679,10.854097 22.069998,11.306351c-3.979836,2.894426 -8.140573,5.155696 -13.477171,3.708483c-4.974795,-1.356762 -10.04004,-7.959671 -13.205818,-11.849056c-5.517499,-6.602909 -9.859138,-14.833933 -17.004752,-19.718276c4.070286,0.994959 8.050122,2.080369 12.120408,2.984877c9.678237,5.427049 16.009793,15.195736 26.502087,19.537375c3.256229,1.356762 6.422007,1.718565 9.497335,1.356762c-0.271352,0.271352 -0.542705,0.452254 -0.814057,0.633156zm18.180613,-11.306351l-0.180902,0c-0.723606,0.452254 -1.447213,0.904508 -2.170819,1.447213c0.180902,-0.180902 0.452254,-0.361803 0.633156,-0.633156c0.090451,-0.090451 -0.090451,-0.361803 -0.180902,-0.271352c-10.130491,7.597868 -27.768399,8.050122 -36.089873,-2.532623c-0.180902,-0.180902 -0.361803,0.090451 -0.271352,0.271352c5.336598,10.582745 23.879014,11.12545 33.647701,4.884344c-1.899467,1.537664 -3.798934,3.075328 -5.788852,4.52254c-6.422007,4.43209 -13.748523,2.442172 -20.08008,-0.904508c-8.050122,-4.341639 -13.477171,-12.029958 -21.346391,-16.642949c3.889385,0.814057 7.77877,1.537664 11.758605,2.080369c0.994959,0.090451 2.080369,0.180902 3.075328,0.271352c-0.090451,0.180902 -0.090451,0.361803 0.090451,0.361803c9.406884,1.356762 17.276105,7.145614 26.86389,7.959671c3.798934,0.361803 7.507417,-0.361803 10.854097,-1.989918c-0.361803,0.452254 -0.542705,0.814057 -0.814057,1.175861zm7.86922,-7.86922c-0.452254,0.633156 -1.08541,1.175861 -1.628115,1.718565c-0.090451,0 -0.090451,0.090451 -0.090451,0.180902c-2.532623,2.080369 -4.974795,3.979836 -8.140573,5.155696c-3.798934,1.447213 -8.140573,0.994959 -12.029958,0.361803c-7.236065,-1.175861 -13.567621,-5.427049 -20.713235,-6.874262c4.612991,0.361803 9.225983,0.542705 13.838974,0.723606c2.170819,0.090451 4.251188,-0.180902 6.422007,-0.542705l0.090451,0c7.77877,1.809016 16.7334,1.537664 23.42676,-2.351721c-0.542705,0.542705 -0.814057,1.175861 -1.175861,1.628115zm10.401843,-17.004752c0,0.542705 -0.090451,0.994959 -0.180902,1.537664c-0.542705,0.814057 -0.723606,1.809016 -1.08541,2.713524c-0.361803,1.08541 -0.814057,2.080369 -1.266311,3.075328c-3.618032,4.251188 -7.055163,7.86922 -12.753564,9.678237c-5.155696,1.628115 -10.673196,0.994959 -15.919342,0.361803c2.894426,-0.542705 5.788852,-1.175861 8.773729,-1.175861c0.180902,0 0.361803,-0.090451 0.452254,-0.271352c3.075328,-0.542705 6.331557,-1.989918 8.321474,-4.070286c0.180902,-0.180902 0,-0.452254 -0.271352,-0.361803c-1.537664,0.814057 -2.984877,1.809016 -4.52254,2.532623c-1.266311,0.633156 -2.623073,0.904508 -3.979836,1.175861c-4.703442,0 -9.135532,1.266311 -13.748523,1.809016c-5.065245,0.542705 -10.492294,0 -15.64799,-0.542705c6.512458,-0.814057 13.024917,-0.723606 18.723318,-4.612991l0.090451,-0.090451c2.170819,-0.090451 4.43209,-0.180902 6.602909,-0.361803l0.090451,0c8.411925,-0.723606 21.889096,-3.979836 26.411636,-12.210859c-0.090451,0.361803 -0.090451,0.633156 -0.090451,0.814057z"
                  class="st0"/>
        </g>
    </g>
</svg>