<?xml version="1.0" standalone="no"?>
<!DOCTYPE svg PUBLIC "-//W3C//DTD SVG 20010904//EN"
 "http://www.w3.org/TR/2001/REC-SVG-20010904/DTD/svg10.dtd">
<svg version="1.0" xmlns="http://www.w3.org/2000/svg"
 width="1280.000000pt" height="856.000000pt" viewBox="0 0 1280.000000 856.000000"
 preserveAspectRatio="xMidYMid meet">
<g transform="translate(0.000000,856.000000) scale(0.100000,-0.100000)"
fill="#000000" stroke="none">
<path fill="#535a72" d="M5040 8505 c0 -9 5 -15 11 -13 6 2 11 8 11 13 0 5 -5 11 -11 13 -6 2
-11 -4 -11 -13z"/>
<path fill="#535a72" d="M5135 8450 c-3 -5 -1 -10 4 -10 6 0 11 5 11 10 0 6 -2 10 -4 10 -3 0
-8 -4 -11 -10z"/>
<path fill="#535a72" d="M5150 8412 c1 -17 19 -34 29 -28 17 11 13 23 -9 29 -11 3 -20 2 -20
-1z"/>
<path fill="#535a72" d="M4930 8088 c0 -7 -3 -31 -6 -53 -5 -28 -3 -37 4 -30 16 15 26 82 13
89 -6 4 -11 1 -11 -6z"/>
<path fill="#535a72" d="M5672 7902 c-24 -19 -21 -32 8 -32 20 0 53 34 43 43 -11 11 -27 8
-51 -11z"/>
<path fill="#535a72" d="M10883 7859 c0 -13 -3 -36 -7 -51 -6 -22 -5 -28 7 -28 22 0 33 69 14
88 -13 13 -15 11 -14 -9z"/>
<path fill="#535a72" d="M5657 7823 c-12 -11 -8 -23 8 -23 8 0 15 7 15 15 0 16 -12 20 -23 8z"/>
<path fill="#535a72" d="M4910 7780 c0 -8 -5 -51 -9 -95 -9 -82 -6 -105 11 -105 7 0 8 16 4
41 -4 23 -2 56 4 75 7 21 8 43 1 66 -5 18 -10 26 -11 18z"/>
<path fill="#535a72" d="M9850 7705 c0 -8 5 -15 10 -15 6 0 10 7 10 15 0 8 -4 15 -10 15 -5 0
-10 -7 -10 -15z"/>
<path fill="#535a72" d="M4853 7548 c-11 -13 -24 -34 -28 -47 -9 -28 -8 -191 0 -200 10 -9 25
22 25 52 0 15 6 30 13 32 8 4 12 33 13 95 0 50 0 90 -1 90 -1 0 -11 -10 -22
-22z"/>
<path fill="#535a72" d="M9650 7529 c-19 -5 -45 -6 -57 -4 -26 6 -80 -36 -69 -53 5 -8 19 -6
49 8 23 11 61 24 85 30 23 6 42 15 42 20 0 11 -2 11 -50 -1z"/>
<path fill="#535a72" d="M9414 7515 c-6 -16 12 -45 27 -45 5 0 9 14 9 30 0 32 -26 43 -36 15z"/>
<path fill="#535a72" d="M9338 7428 c-38 -20 -50 -38 -25 -38 7 0 34 7 60 16 32 11 44 20 40
30 -7 18 -29 16 -75 -8z"/>
<path fill="#535a72" d="M5685 7407 c-11 -8 -51 -25 -88 -38 -40 -14 -74 -33 -83 -46 -14 -22
-13 -22 12 -13 15 6 29 8 31 6 6 -6 81 33 89 45 3 5 13 9 22 9 9 0 25 12 35
25 20 28 12 32 -18 12z"/>
<path fill="#535a72" d="M6550 7390 c-8 -5 -11 -12 -7 -16 4 -4 13 -2 19 4 15 15 7 24 -12 12z"/>
<path fill="#535a72" d="M9255 7368 c-16 -6 -41 -15 -55 -21 -14 -6 -32 -9 -41 -8 -9 1 -19
-5 -22 -14 -9 -21 17 -19 83 5 30 12 63 23 73 27 19 6 23 24 5 22 -7 -1 -26
-6 -43 -11z"/>
<path fill="#535a72" d="M4866 7316 c5 -20 2 -26 -10 -26 -9 0 -16 -4 -16 -10 0 -5 3 -9 8 -7
4 1 8 -1 10 -5 1 -5 -2 -8 -8 -8 -13 0 -13 -12 0 -44 6 -17 14 -24 25 -20 21
8 21 109 0 131 -14 14 -15 13 -9 -11z"/>
<path fill="#535a72" d="M5595 7300 c-3 -5 1 -10 9 -10 8 0 18 5 21 10 3 6 -1 10 -9 10 -8 0
-18 -4 -21 -10z"/>
<path fill="#535a72" d="M9080 7300 c-13 -9 -13 -10 0 -10 8 0 22 5 30 10 13 9 13 10 0 10 -8
0 -22 -5 -30 -10z"/>
<path fill="#535a72" d="M5577 7190 c-4 -16 -1 -20 11 -18 19 4 23 29 6 35 -6 2 -14 -6 -17
-17z"/>
<path fill="#535a72" d="M5640 7191 c0 -5 -3 -18 -7 -28 -6 -17 -5 -17 15 1 26 22 28 36 7 36
-8 0 -15 -4 -15 -9z"/>
<path fill="#535a72" d="M5744 7173 c-12 -13 -27 -23 -35 -23 -10 0 -9 -4 3 -16 20 -21 51
-11 68 21 7 14 22 25 32 25 10 0 18 4 18 10 0 18 -65 5 -86 -17z"/>
<path fill="#535a72" d="M9029 7137 c-9 -21 -17 -25 -38 -21 -35 7 -97 -20 -104 -46 -4 -17
-3 -19 8 -10 9 8 15 8 20 0 9 -15 42 -12 70 6 13 8 36 14 51 12 18 -2 31 3 40
18 13 18 11 23 -11 44 l-24 23 -12 -26z"/>
<path fill="#535a72" d="M6577 7103 c-8 -10 -19 -30 -22 -45 -6 -22 -4 -28 10 -28 12 0 15 -5
11 -17 -4 -10 2 -25 15 -40 13 -12 18 -23 12 -23 -6 0 -30 -16 -53 -35 -23
-19 -47 -35 -53 -35 -7 0 -21 -7 -32 -16 -17 -13 -18 -16 -5 -24 31 -20 74
-11 112 23 20 17 44 37 52 42 8 6 18 26 21 46 6 34 4 38 -29 58 -20 13 -36 24
-36 26 0 1 7 19 15 38 8 20 15 39 15 42 0 11 -18 4 -33 -12z"/>
<path fill="#535a72" d="M4810 7098 c0 -7 5 -47 11 -88 6 -41 12 -88 13 -105 1 -20 6 -29 15
-27 8 2 11 -3 8 -13 -4 -8 -2 -15 3 -15 6 0 10 14 10 30 0 17 -4 30 -8 30 -4
0 -8 17 -8 38 -2 91 -8 137 -20 149 -16 16 -24 17 -24 1z"/>
<path fill="#535a72" d="M5570 7101 c0 -7 -4 -9 -10 -6 -5 3 -10 -1 -10 -9 0 -18 8 -20 30 -6
12 7 12 12 2 22 -9 9 -12 9 -12 -1z"/>
<path fill="#535a72" d="M6377 7023 c-4 -3 -7 -11 -7 -17 0 -6 5 -5 12 2 6 6 9 14 7 17 -3 3
-9 2 -12 -2z"/>
<path fill="#535a72" d="M5043 6998 c-25 -18 -32 -32 -37 -71 -4 -28 -13 -50 -21 -54 -8 -3
-15 -12 -15 -19 0 -8 -7 -17 -15 -20 -8 -4 -15 -13 -15 -22 0 -13 2 -13 18 1
21 19 42 22 42 7 0 -6 -17 -29 -38 -53 -38 -41 -58 -77 -44 -77 4 0 18 14 32
30 31 38 45 39 26 3 -7 -16 -17 -44 -21 -63 -10 -49 -32 -80 -56 -80 -19 0
-20 -4 -15 -35 5 -23 3 -35 -4 -35 -6 0 -20 -20 -31 -45 -11 -24 -35 -68 -55
-97 -19 -29 -37 -64 -41 -77 -3 -14 -25 -56 -48 -95 -23 -39 -45 -83 -49 -99
-3 -15 -14 -35 -24 -45 -19 -19 -92 -230 -92 -265 0 -13 -5 -28 -10 -33 -8 -8
-6 -15 4 -24 34 -27 47 -6 96 155 36 117 151 342 169 331 4 -3 14 6 22 20 7
14 21 30 31 35 10 5 18 16 18 24 0 18 -12 19 -28 3 -6 -6 -14 -9 -17 -6 -3 3
15 28 41 57 25 28 44 56 42 63 -7 20 37 122 69 165 16 21 34 51 39 67 11 35
34 47 34 17 0 -26 5 -26 39 -2 16 12 33 37 40 63 7 24 23 61 34 83 12 22 20
47 19 56 -2 8 7 24 18 34 22 20 27 49 8 43 -7 -3 -19 -16 -26 -31 l-13 -26
-34 21 c-19 11 -35 28 -35 37 0 10 -10 22 -22 28 l-23 10 23 12 c24 13 30 31
9 31 -7 0 -26 -10 -44 -22z m47 -107 c0 -11 -6 -23 -12 -28 -18 -11 -58 -15
-58 -6 0 12 44 52 58 52 6 1 12 -8 12 -18z m5 -100 c-3 -14 -14 -32 -23 -39
-15 -11 -18 -9 -24 15 -5 19 -3 32 8 44 23 25 47 13 39 -20z"/>
<path fill="#535a72" d="M9033 6992 c-13 -2 -23 -8 -23 -13 0 -13 37 -11 45 2 9 14 5 16 -22
11z"/>
<path fill="#535a72" d="M5940 6949 c0 -5 5 -7 10 -4 6 3 10 8 10 11 0 2 -4 4 -10 4 -5 0 -10
-5 -10 -11z"/>
<path fill="#535a72" d="M6327 6867 c-47 -86 -52 -117 -17 -117 22 0 40 28 40 63 0 14 7 27
15 31 16 6 20 52 6 74 -6 10 -19 -5 -44 -51z"/>
<path fill="#535a72" d="M7063 6913 c-32 -22 -28 -40 9 -45 25 -4 36 0 54 21 20 23 21 27 6
33 -27 10 -45 8 -69 -9z"/>
<path fill="#535a72" d="M5550 6863 c-23 -20 -39 -42 -36 -49 3 -7 -3 -37 -13 -66 -10 -29
-17 -79 -17 -111 1 -48 -2 -61 -17 -69 -15 -7 -18 -17 -13 -39 5 -28 -8 -42
-16 -17 -3 9 -16 4 -41 -15 -19 -15 -40 -27 -46 -27 -6 0 -11 -5 -11 -12 0 -6
-8 -20 -17 -30 -14 -16 -15 -21 -3 -28 10 -6 11 -12 2 -22 -6 -8 -9 -29 -6
-49 5 -31 2 -39 -26 -62 -17 -15 -38 -27 -46 -27 -8 0 -14 -4 -14 -10 0 -16
21 -12 67 16 24 14 48 22 55 18 15 -9 -11 -29 -79 -59 -29 -13 -53 -29 -53
-34 0 -17 47 -24 103 -16 29 4 61 8 72 8 10 1 28 10 38 20 12 12 22 16 29 9 6
-6 19 0 37 17 15 14 48 45 74 67 26 23 47 47 47 53 0 6 5 11 10 11 15 0 50 61
50 86 0 12 11 37 24 57 26 38 45 107 29 107 -5 0 -24 -26 -42 -57 -19 -32 -42
-70 -52 -85 -11 -15 -19 -32 -19 -39 0 -6 -12 -26 -27 -44 -16 -18 -48 -58
-72 -89 -24 -32 -45 -55 -47 -53 -6 6 16 46 50 90 21 27 26 40 18 50 -8 9 -5
25 9 57 19 41 19 48 5 115 -8 40 -12 83 -9 96 6 22 5 23 -11 10 -27 -23 -29
-6 -1 27 14 16 25 40 25 53 0 13 12 56 25 94 14 39 25 73 25 78 0 16 -22 5
-60 -30z m-140 -458 c-7 -9 -15 -13 -18 -10 -3 2 1 11 8 20 7 9 15 13 18 10 3
-2 -1 -11 -8 -20z"/>
<path fill="#535a72" d="M9010 6880 c0 -5 5 -10 10 -10 6 0 10 5 10 10 0 6 -4 10 -10 10 -5 0
-10 -4 -10 -10z"/>
<path fill="#535a72" d="M8910 6845 c-13 -35 -13 -36 7 -33 10 2 19 -6 22 -20 l6 -23 29 30
c24 25 27 32 15 44 -8 7 -27 17 -42 21 -23 5 -29 3 -37 -19z"/>
<path fill="#535a72" d="M7050 6842 c0 -5 9 -17 20 -27 23 -21 27 -4 4 19 -17 18 -24 20 -24
8z"/>
<path fill="#535a72" d="M5822 6743 c-22 -27 -29 -53 -14 -53 4 0 17 18 30 40 26 46 16 53
-16 13z"/>
<path fill="#535a72" d="M6965 6730 c-4 -6 -1 -17 5 -25 7 -8 11 -15 9 -16 -2 0 -12 -2 -22
-4 -34 -6 -48 -15 -42 -25 12 -19 43 -10 69 21 14 17 26 37 26 45 0 16 -36 19
-45 4z"/>
<path fill="#535a72" d="M8935 6730 c-3 -5 -9 -32 -12 -60 -3 -27 -12 -55 -19 -61 -8 -6 -14
-17 -14 -23 0 -7 -11 -23 -25 -36 -32 -30 -32 -40 1 -40 19 0 28 7 35 30 6 17
17 30 25 30 16 0 56 59 48 72 -3 4 -15 3 -26 -3 -19 -10 -20 -9 -14 16 19 76
20 105 1 75z"/>
<path fill="#535a72" d="M6314 6668 c4 -24 9 -53 13 -65 4 -20 1 -23 -26 -23 -21 0 -31 -5
-31 -15 0 -18 14 -19 41 -5 27 15 24 2 -6 -22 -14 -11 -25 -26 -25 -34 0 -8
-19 -35 -41 -59 -45 -49 -45 -53 4 -29 73 38 118 75 112 94 -4 12 3 25 21 39
l27 21 -29 1 c-16 0 -23 3 -16 6 19 7 14 48 -8 68 -11 10 -20 29 -20 42 0 12
-5 23 -11 23 -8 0 -9 -14 -5 -42z"/>
<path fill="#535a72" d="M8975 6700 c-3 -5 -2 -10 4 -10 5 0 13 5 16 10 3 6 2 10 -4 10 -5 0
-13 -4 -16 -10z"/>
<path fill="#535a72" d="M4887 6665 c-10 -7 -17 -21 -15 -31 2 -15 6 -13 21 10 22 32 19 40
-6 21z"/>
<path fill="#535a72" d="M10693 6668 c-21 -10 -32 -28 -18 -28 10 0 65 30 65 35 0 8 -23 4
-47 -7z"/>
<path fill="#535a72" d="M8470 6650 c0 -5 5 -10 10 -10 6 0 10 5 10 10 0 6 -4 10 -10 10 -5 0
-10 -4 -10 -10z"/>
<path fill="#535a72" d="M9735 6630 c-3 -5 -1 -10 4 -10 6 0 11 5 11 10 0 6 -2 10 -4 10 -3 0
-8 -4 -11 -10z"/>
<path fill="#535a72" d="M8690 6610 l-25 -8 28 -1 c15 -1 27 4 27 9 0 6 -1 10 -2 9 -2 -1 -14
-5 -28 -9z"/>
<path fill="#535a72" d="M8456 6601 c-4 -7 -5 -15 -2 -18 9 -9 19 4 14 18 -4 11 -6 11 -12 0z"/>
<path fill="#535a72" d="M8582 6594 c-13 -9 -33 -25 -45 -37 -12 -12 -35 -32 -50 -44 -22 -17
-26 -27 -21 -47 3 -14 12 -26 20 -26 8 0 14 -7 14 -15 0 -15 39 -42 41 -28 0
4 4 -1 9 -12 7 -15 9 -16 9 -4 1 9 17 29 36 43 36 27 44 53 24 73 -8 8 -3 19
20 39 20 17 28 31 22 38 -5 6 -10 15 -10 20 -1 17 -46 17 -69 0z m-26 -105
c16 -17 16 -22 4 -29 -24 -16 -67 -12 -74 6 -4 9 -5 17 -4 18 2 1 12 6 23 13
27 16 29 16 51 -8z"/>
<path fill="#535a72" d="M5045 6580 c-3 -5 1 -10 9 -10 9 0 16 5 16 10 0 6 -4 10 -9 10 -6 0
-13 -4 -16 -10z"/>
<path fill="#535a72" d="M9770 6580 c0 -5 5 -10 11 -10 5 0 7 5 4 10 -3 6 -8 10 -11 10 -2 0
-4 -4 -4 -10z"/>
<path fill="#535a72" d="M10350 6556 c-36 -13 -105 -40 -154 -60 -110 -44 -133 -46 -87 -6 19
16 32 32 29 35 -8 9 -80 -12 -146 -41 -64 -28 -62 -28 -62 -9 0 8 9 19 20 25
21 11 27 35 11 44 -5 3 -74 -17 -152 -45 -79 -28 -168 -52 -198 -55 -53 -4
-121 -41 -121 -65 0 -5 -7 -9 -15 -9 -17 0 -20 23 -5 51 11 20 70 49 101 49
11 0 19 5 19 11 0 5 16 17 36 25 28 12 33 18 24 29 -13 15 -40 7 -120 -39 -56
-32 -90 -34 -90 -6 0 26 -20 25 -50 -2 l-25 -23 24 -3 23 -4 -23 -24 c-12 -13
-30 -24 -38 -24 -9 0 -36 -12 -60 -25 -24 -14 -52 -24 -61 -23 -9 2 -24 -3
-34 -11 -9 -8 -20 -10 -24 -6 -4 4 -1 10 6 12 18 7 14 33 -5 33 -10 0 -51 -13
-91 -30 -40 -16 -83 -29 -96 -28 -12 1 -37 -8 -55 -21 -25 -18 -39 -22 -68
-16 l-35 6 26 28 c31 33 33 41 6 41 -19 0 -18 3 10 53 37 65 38 79 5 43 -14
-15 -25 -31 -25 -36 0 -5 -27 -38 -60 -74 -52 -55 -67 -65 -105 -70 -25 -4
-47 -11 -50 -17 -10 -16 -78 -46 -118 -52 -35 -5 -37 -4 -31 15 3 11 2 19 -2
16 -5 -2 -26 -13 -46 -23 -27 -14 -41 -16 -48 -9 -15 15 37 77 58 69 8 -3 23
2 33 11 10 9 33 19 50 23 18 4 34 12 37 19 3 10 -10 12 -59 6 -62 -7 -62 -7
-56 17 3 12 1 29 -5 36 -7 9 -7 13 1 13 6 0 11 10 10 23 0 16 -2 18 -7 7 -16
-35 -66 -90 -82 -90 -32 0 -47 -39 -43 -110 l4 -65 -36 -22 c-20 -13 -42 -23
-49 -23 -6 0 -17 -5 -24 -12 -9 -9 -13 -8 -17 4 -6 14 -9 14 -37 1 -17 -9 -33
-24 -35 -34 -6 -21 -29 -25 -36 -6 -2 7 -10 0 -18 -16 -8 -17 -32 -38 -61 -53
-27 -14 -46 -29 -42 -35 7 -12 -27 -40 -39 -32 -4 2 -23 -5 -43 -17 -34 -22
-36 -22 -49 -4 -20 27 -18 39 8 53 49 26 69 39 95 63 16 14 37 30 48 36 19 11
19 11 -1 12 -11 0 -43 -17 -71 -38 -98 -73 -113 -82 -134 -82 -19 0 -18 3 12
30 l33 30 -35 -6 c-29 -5 -33 -4 -22 7 15 16 16 59 2 59 -23 0 -83 -31 -144
-74 -35 -26 -69 -46 -75 -46 -6 0 -20 -5 -31 -12 -25 -16 -38 -3 -22 22 7 11
12 24 12 30 0 5 32 40 71 77 39 38 77 74 84 81 8 6 17 12 22 12 13 1 56 40 50
46 -3 3 -35 -15 -72 -40 -36 -25 -72 -46 -80 -46 -8 0 -16 -4 -19 -9 -3 -5
-30 -15 -58 -21 -29 -7 -65 -20 -80 -28 -47 -27 -47 -11 0 98 8 19 23 44 33
55 23 26 103 175 97 180 -5 6 -58 -73 -58 -86 0 -5 -8 -18 -17 -28 -70 -75
-83 -93 -89 -118 -4 -15 -12 -35 -19 -43 -7 -8 -20 -36 -29 -63 -16 -47 -68
-106 -96 -107 -8 0 -23 -9 -35 -20 -47 -47 -183 -135 -193 -125 -3 2 2 13 11
23 10 10 17 26 17 35 0 9 16 32 35 52 32 31 33 35 15 35 -12 0 -36 -11 -54
-25 -18 -14 -38 -25 -43 -25 -6 0 -16 -7 -23 -15 -13 -16 -40 -21 -40 -7 0 4
10 12 22 17 13 6 28 21 35 34 6 13 19 28 27 33 11 6 16 23 15 56 l-1 47 -12
-37 c-10 -34 -30 -60 -76 -100 -11 -10 -24 -18 -28 -18 -5 0 -29 -15 -53 -32
-24 -18 -66 -47 -93 -64 l-50 -32 -17 22 -18 21 -15 -21 c-9 -12 -27 -25 -41
-28 -14 -4 -23 -11 -20 -16 3 -6 0 -10 -8 -10 -8 0 -56 -32 -106 -71 -90 -69
-106 -75 -106 -41 0 11 -10 18 -27 20 -18 2 -28 -1 -28 -10 0 -18 -55 -78 -72
-78 -8 0 -7 5 4 17 16 15 16 17 -5 28 -15 7 -21 18 -19 34 3 22 1 23 -40 18
-24 -3 -58 -8 -77 -12 -33 -8 -33 -8 -29 -57 l5 -50 -28 4 c-16 3 -29 1 -29
-4 0 -4 10 -8 22 -8 22 0 22 -1 -6 -27 l-29 -26 23 -9 c24 -9 82 11 95 32 4 6
11 8 16 5 5 -4 19 1 31 9 33 23 41 19 22 -10 -10 -14 -33 -33 -53 -44 -20 -10
-74 -53 -120 -96 -63 -59 -90 -78 -108 -76 -17 3 -25 -3 -33 -23 -5 -14 -18
-28 -27 -32 -10 -3 -35 -19 -55 -35 -41 -32 -72 -30 -42 3 9 10 23 19 31 19 7
0 13 5 13 12 0 6 18 27 41 46 25 22 38 40 34 50 -3 8 0 21 7 30 11 13 10 14
-10 8 -16 -5 -24 -3 -28 8 -4 10 -18 16 -35 16 -32 0 -37 11 -14 30 24 20 17
30 -15 24 -33 -7 -38 2 -15 32 11 15 17 16 23 6 10 -14 41 -6 43 12 1 6 0 19
0 29 -1 9 5 20 14 23 9 4 21 16 25 28 l9 21 7 -22 c7 -26 29 -31 37 -9 3 8 22
20 41 27 20 7 36 18 36 25 0 6 14 14 31 18 17 3 28 10 25 15 -4 5 1 16 9 24 8
9 15 21 15 28 0 7 10 9 30 6 39 -8 92 2 87 17 -2 6 -17 11 -33 12 -52 1 -64 4
-64 14 0 5 5 9 12 7 6 -1 13 6 15 15 3 12 -1 15 -16 11 -12 -3 -21 -1 -21 6 0
7 -8 6 -23 -4 -13 -8 -27 -12 -31 -8 -4 4 -23 6 -42 4 -19 -1 -34 2 -34 8 0 6
5 11 12 11 9 0 9 3 1 11 -8 8 -20 9 -42 1 -37 -13 -38 -10 -10 29 18 25 27 29
68 29 31 0 53 5 61 15 15 18 7 31 -12 19 -7 -5 -27 -9 -45 -9 -29 0 -32 2 -27
25 3 14 28 46 55 72 27 26 49 55 49 63 0 20 37 19 48 -1 7 -13 13 -14 29 -6
11 6 29 8 41 5 16 -4 22 -1 22 11 0 10 -11 19 -30 23 -17 3 -33 9 -35 14 -3 4
-20 2 -38 -6 -30 -13 -35 -12 -50 5 -15 18 -15 21 10 40 14 11 30 20 34 20 13
0 11 35 -3 65 -10 22 -8 28 10 48 32 33 29 72 -4 49 -32 -22 -64 -81 -64 -119
0 -34 -5 -44 -32 -63 -40 -27 -71 -67 -63 -80 3 -6 17 -10 31 -10 28 0 32 -23
7 -42 -39 -28 -95 -109 -90 -128 5 -21 -10 -44 -35 -53 -13 -4 -15 -2 -11 10
4 11 3 14 -6 9 -7 -5 -10 -15 -6 -23 3 -9 -2 -24 -10 -33 -14 -16 -14 -18 -1
-23 10 -4 20 2 26 13 11 21 27 25 48 12 16 -10 5 -42 -14 -42 -7 0 -23 -13
-36 -30 -23 -31 -44 -41 -35 -16 3 8 -1 20 -9 26 -8 7 -14 9 -15 4 -1 -5 -4 2
-8 16 -6 23 -8 22 -28 -20 -12 -25 -31 -53 -42 -62 -12 -10 -21 -27 -21 -39 0
-15 -5 -19 -18 -15 -13 5 -22 -1 -30 -19 -14 -29 -6 -32 21 -7 19 17 20 16 8
-6 -10 -18 -18 -22 -37 -18 -26 7 -30 -3 -14 -34 7 -13 6 -21 -5 -30 -8 -7
-15 -25 -15 -40 0 -16 -4 -30 -8 -32 -21 -9 -53 -70 -47 -90 4 -19 3 -20 -6
-8 -10 14 -16 14 -60 0 -34 -10 -49 -20 -49 -32 0 -10 -6 -18 -14 -18 -7 0
-19 -6 -25 -14 -12 -14 -62 -9 -92 10 -24 14 -48 11 -66 -8 -16 -18 -16 -18 0
-12 31 12 19 -25 -15 -46 -18 -11 -35 -20 -38 -20 -12 0 -25 48 -19 70 4 14 7
50 7 80 1 55 1 55 -16 30 -9 -14 -31 -38 -48 -55 -17 -16 -34 -39 -39 -50 -7
-18 -9 -17 -14 10 l-7 30 -14 -25 c-18 -32 -30 -188 -17 -217 7 -17 3 -32 -22
-75 -48 -83 -60 -96 -71 -78 -11 18 -2 67 17 98 20 33 8 40 -21 12 -18 -16
-32 -21 -50 -16 -19 5 -26 2 -31 -13 -3 -11 -12 -22 -20 -24 -8 -4 -11 -14 -8
-25 3 -12 -3 -27 -15 -38 -11 -11 -21 -28 -23 -38 -5 -24 -32 -41 -53 -33 -27
11 -21 65 9 79 27 12 33 28 11 28 -8 0 -16 10 -18 23 -5 36 -31 26 -54 -21
-19 -41 -34 -46 -34 -12 0 9 9 35 20 58 21 44 26 82 10 82 -5 0 -16 -15 -23
-32 -8 -18 -24 -42 -35 -52 -24 -21 -21 -57 5 -88 10 -11 11 -18 4 -23 -14 -8
-41 18 -41 39 0 23 -17 28 -23 6 -8 -31 -35 -24 -42 10 -4 17 -10 28 -13 26
-4 -2 -7 14 -7 37 0 46 -20 61 -33 25 -5 -13 -12 -52 -16 -87 -5 -53 -4 -62 8
-52 10 8 16 8 25 -3 14 -16 4 -46 -15 -46 -8 0 -14 -7 -14 -15 0 -8 -16 -27
-35 -42 -19 -15 -35 -36 -35 -46 0 -10 -5 -15 -10 -12 -12 8 -13 45 -2 45 5 0
9 14 10 30 0 17 4 39 7 50 3 11 3 20 -2 20 -13 0 -34 -40 -28 -50 7 -12 -15
-13 -30 -2 -5 4 -10 21 -11 39 -1 25 2 30 15 25 14 -5 14 -4 2 11 -13 16 -15
16 -27 -2 -18 -25 -58 -112 -59 -128 0 -6 -4 -15 -8 -19 -4 -4 -7 -18 -7 -31
0 -12 -4 -23 -10 -23 -5 0 -10 -9 -10 -20 0 -11 -7 -20 -15 -20 -23 0 -38 -35
-20 -50 23 -19 6 -41 -29 -38 l-31 3 0 88 c0 48 -3 87 -7 87 -4 0 -26 -28 -49
-61 -36 -54 -41 -66 -36 -104 4 -40 -5 -65 -25 -65 -4 0 -8 7 -8 15 0 8 -5 15
-11 15 -5 0 -9 -10 -7 -22 3 -20 -1 -23 -32 -23 -20 0 -42 -7 -53 -18 -14 -14
-21 -16 -33 -6 -8 6 -14 19 -14 28 -1 9 -7 27 -14 40 l-13 23 -21 -27 c-12
-15 -22 -33 -22 -41 0 -7 -11 -35 -25 -62 -14 -28 -25 -59 -25 -71 0 -27 -18
-27 -47 1 -26 25 -35 20 -36 -17 0 -18 -7 -30 -24 -38 -18 -8 -23 -16 -19 -31
3 -11 -2 -27 -10 -36 -9 -8 -29 -39 -45 -67 -33 -59 -63 -70 -73 -28 -4 14
-11 25 -16 25 -15 0 -12 36 5 50 26 21 12 90 -19 90 -7 0 -12 9 -11 20 2 27
14 37 25 20 5 -8 12 -12 15 -8 13 13 -28 39 -54 34 -32 -7 -56 7 -48 27 3 9 1
18 -6 21 -7 2 -3 5 7 5 11 1 28 -7 38 -16 24 -21 109 -29 102 -8 -3 7 -14 15
-25 18 -10 3 -19 11 -19 17 0 7 7 10 15 6 9 -3 15 0 15 10 0 8 -4 13 -9 9 -6
-3 -11 11 -13 32 -5 60 -24 50 -25 -14 -1 -32 -2 -59 -2 -61 -1 -1 -9 2 -19 7
-13 7 -18 19 -16 38 2 15 5 47 7 69 3 23 7 47 11 53 4 6 -1 22 -11 37 -17 27
-17 27 4 15 31 -16 32 -15 26 23 -4 28 -2 35 15 40 17 6 19 11 12 37 -7 25 -5
35 10 52 16 16 17 23 8 35 -10 11 -9 16 4 23 10 5 14 17 11 29 -3 11 0 27 7
35 10 12 9 15 -4 15 -9 0 -16 4 -16 10 0 5 7 7 15 4 17 -7 21 21 5 31 -20 12
-11 33 12 27 17 -4 20 -2 15 11 -4 11 -2 14 7 11 7 -3 16 2 19 10 4 10 1 16
-8 16 -8 0 -15 5 -15 10 0 6 7 10 15 10 17 0 23 25 23 98 0 29 4 58 10 65 5 6
14 26 20 44 8 25 8 34 -4 44 -14 11 -14 13 0 21 8 5 13 15 10 22 -3 8 0 17 6
21 6 4 8 14 5 24 -3 11 4 26 20 41 28 26 30 38 13 75 -15 33 -25 32 -43 -7 -9
-18 -31 -62 -50 -98 -19 -36 -34 -75 -34 -86 -1 -12 -8 -27 -16 -34 -8 -7 -15
-24 -15 -38 0 -14 -9 -36 -21 -48 -11 -12 -21 -32 -23 -45 -3 -22 -36 -102
-57 -139 -20 -34 -21 -42 -4 -60 9 -10 14 -24 10 -29 -3 -6 0 -11 7 -11 10 0
9 -3 -2 -9 -8 -6 -26 -7 -40 -5 -24 5 -26 1 -52 -78 -15 -46 -35 -108 -46
-138 -39 -112 -52 -167 -58 -247 -3 -46 -9 -83 -13 -83 -4 0 -13 -19 -20 -42
-7 -24 -17 -56 -23 -73 -5 -16 -10 -38 -10 -47 1 -10 -3 -18 -8 -18 -10 0 -50
-76 -50 -94 0 -6 -7 -24 -15 -40 -8 -15 -12 -32 -10 -37 3 -5 -2 -20 -11 -34
-9 -14 -14 -32 -10 -40 3 -8 1 -15 -4 -15 -6 0 -10 -9 -10 -19 0 -22 -38 -91
-49 -91 -5 0 -16 16 -27 35 -21 40 -30 43 -39 14 -5 -15 -10 -17 -20 -9 -10 8
-19 -3 -41 -50 -15 -33 -30 -60 -34 -60 -4 0 -12 12 -19 26 l-11 25 -39 -40
c-22 -23 -45 -57 -51 -76 -14 -41 -26 -44 -42 -10 -6 14 -14 25 -18 25 -3 0
-21 -32 -40 -70 -26 -54 -36 -67 -43 -55 -7 13 -11 14 -24 4 -20 -17 -68 -113
-84 -169 -7 -25 -26 -66 -42 -93 -28 -43 -32 -46 -47 -32 -23 21 -27 20 -55
-25 -38 -60 -70 -173 -114 -397 -22 -111 -49 -220 -60 -242 -27 -52 -26 -58 7
-75 l29 -15 7 -165 c5 -118 4 -172 -5 -187 -6 -12 -60 -77 -120 -145 -60 -68
-109 -130 -109 -138 0 -8 -15 -27 -34 -41 -71 -54 -248 -314 -321 -470 -23
-49 -63 -126 -89 -170 -26 -43 -53 -93 -60 -110 -7 -16 -41 -76 -74 -133 -34
-57 -66 -122 -72 -145 -6 -23 -26 -91 -45 -152 -31 -102 -55 -203 -76 -315 -4
-25 -8 -76 -8 -113 -1 -53 -6 -74 -22 -97 -12 -16 -23 -47 -24 -72 -2 -24 -5
-54 -7 -68 -5 -42 23 -29 64 30 60 84 84 138 103 225 22 103 58 211 77 233 16
18 128 275 128 292 0 6 8 18 18 28 46 46 62 75 51 89 -9 11 -7 19 9 36 20 22
69 122 90 184 6 18 22 48 35 65 14 18 43 67 66 110 23 42 48 79 56 82 8 3 15
14 15 25 0 11 9 25 20 31 12 6 20 21 20 35 0 14 9 34 20 45 11 11 20 24 20 29
0 5 31 55 69 113 l69 104 115 12 c137 16 373 14 399 -1 13 -9 21 -8 30 1 17
17 31 15 24 -3 -6 -17 9 -21 19 -5 8 13 52 13 60 0 3 -5 13 -6 23 -3 15 6 15
5 3 -10 -12 -15 -11 -17 2 -17 9 0 19 9 22 20 3 11 11 20 17 20 6 0 8 -3 5 -7
-11 -10 26 -32 56 -33 16 0 26 -4 22 -10 -3 -5 3 -10 14 -10 12 0 21 3 21 8 0
8 -48 32 -66 32 -7 0 -15 4 -19 10 -3 5 24 9 70 8 41 0 75 -5 75 -10 0 -5 -14
-21 -30 -35 -28 -23 -40 -53 -22 -53 4 0 28 20 52 45 45 46 73 55 111 34 12
-6 18 -17 15 -26 -5 -12 0 -13 27 -8 17 4 34 11 37 15 3 5 18 12 33 15 20 6
27 4 27 -8 0 -8 6 -18 13 -20 9 -4 8 -8 -3 -16 -11 -8 -16 -7 -18 4 -4 17 -18
20 -27 4 -9 -14 -5 -17 29 -23 21 -4 34 1 52 21 16 18 28 23 36 16 7 -5 38 -8
68 -7 30 1 64 -3 75 -9 11 -6 43 -11 70 -12 52 -2 208 -35 285 -60 227 -74
296 -98 370 -128 150 -61 235 -97 252 -107 10 -6 36 -16 58 -24 35 -12 39 -12
29 0 -6 8 -16 14 -22 14 -6 0 -18 6 -26 14 -22 20 -132 76 -149 76 -7 0 -11 4
-8 9 3 5 -6 12 -21 16 -15 3 -39 15 -53 25 -15 11 -52 29 -83 40 -55 21 -80
38 -34 24 46 -14 204 -76 262 -103 33 -15 83 -36 112 -45 29 -10 68 -28 88
-42 43 -29 81 -34 44 -6 -29 22 -263 137 -321 158 -23 8 -46 18 -52 23 -27 22
-451 169 -569 197 -15 3 -29 9 -31 13 -6 11 13 51 25 51 6 0 9 -6 6 -14 -5
-14 10 -36 25 -36 4 0 8 7 8 15 0 8 9 15 21 15 11 0 17 -5 14 -10 -4 -6 16
-10 52 -10 75 0 101 -8 108 -31 4 -10 13 -19 22 -19 13 0 13 3 3 15 -19 23 27
20 73 -5 21 -12 57 -25 80 -30 126 -28 147 -33 147 -40 0 -8 47 -26 139 -54
56 -18 84 -14 36 4 -15 6 -39 19 -54 28 -14 10 -46 24 -71 31 -25 7 -57 22
-72 32 -14 11 -32 19 -39 19 -17 0 -100 31 -116 43 -7 5 -13 14 -13 19 0 6 7
4 16 -3 9 -7 35 -15 58 -16 22 -2 43 -8 44 -13 2 -6 13 -10 24 -10 12 0 51
-14 87 -32 70 -33 79 -37 156 -63 28 -9 60 -21 72 -27 40 -19 35 -2 -7 27 -22
15 -39 30 -37 32 2 2 23 -3 46 -12 23 -8 45 -14 49 -14 15 2 52 -14 52 -22 0
-5 10 -9 23 -9 20 0 19 2 -9 19 -17 10 -41 22 -55 26 -13 4 -31 13 -39 20 -8
7 -58 32 -110 56 -110 49 -139 71 -122 92 12 14 51 14 130 2 38 -5 91 -24 200
-71 17 -7 32 -11 32 -9 0 6 -99 73 -139 94 -25 13 -41 29 -41 42 0 7 60 0 85
-11 11 -5 31 -11 45 -14 24 -5 24 -4 -5 17 -16 12 -43 34 -60 49 -27 25 -28
27 -9 28 11 0 25 -5 32 -12 8 -8 15 -9 22 -2 7 7 -3 18 -32 33 -24 12 -54 31
-68 41 -20 16 -22 20 -7 20 9 0 17 -4 17 -9 0 -6 12 -6 32 -1 20 6 36 6 44 -1
8 -7 14 -6 17 3 4 10 8 10 17 -2 9 -11 13 -12 17 -2 3 9 12 8 34 -5 28 -17 30
-22 28 -70 -2 -32 3 -58 11 -68 10 -12 11 -21 3 -33 -7 -13 -5 -22 8 -36 19
-19 39 -14 39 10 0 23 16 16 29 -13 9 -19 15 -23 23 -15 17 17 -2 65 -30 77
-12 5 -22 19 -22 30 0 12 -4 25 -8 30 -5 6 -14 24 -21 40 -10 26 -5 23 37 -22
50 -52 62 -56 62 -21 0 15 5 18 20 13 30 -10 24 -1 -20 30 -42 29 -52 55 -22
55 24 1 50 22 45 38 -6 16 5 15 43 -6 17 -9 50 -27 74 -40 23 -13 45 -21 48
-18 8 8 -89 96 -106 96 -15 0 -82 49 -82 60 0 16 51 -4 69 -26 10 -13 25 -24
33 -24 15 0 110 -61 145 -93 13 -11 26 -18 29 -15 6 7 -96 94 -149 127 -20 12
-37 27 -37 32 0 5 -8 9 -19 9 -10 0 -24 7 -31 15 -15 18 -10 18 24 6 17 -7 26
-7 29 2 3 9 11 9 35 0 18 -6 32 -8 32 -3 0 4 -8 11 -17 15 -17 6 -17 7 0 16
13 8 25 5 46 -10 37 -27 49 -26 53 0 6 44 31 45 99 3 35 -21 66 -40 69 -41 2
-2 -1 -18 -8 -35 -8 -21 -8 -36 -2 -42 16 -16 12 -41 -10 -61 -13 -12 -20 -31
-20 -55 0 -24 -12 -56 -36 -96 -64 -103 -84 -155 -84 -213 0 -35 -12 -64 -41
-94 -9 -11 -15 -26 -12 -33 3 -10 0 -12 -10 -9 -8 4 -27 -5 -43 -20 l-29 -26
27 4 c26 4 26 3 11 -20 -19 -28 -11 -41 14 -22 11 8 14 8 7 1 -6 -7 -26 -21
-45 -31 -19 -10 -35 -26 -37 -34 -3 -15 0 -15 33 -1 21 8 39 13 42 10 3 -2
-16 -27 -42 -55 -51 -54 -59 -90 -10 -43 17 15 45 38 62 51 41 28 99 108 95
130 -1 10 7 26 18 36 20 18 21 18 34 0 11 -15 10 -24 -6 -58 -11 -21 -21 -65
-23 -96 -2 -31 -11 -81 -20 -111 -24 -79 -29 -110 -16 -110 16 0 37 48 51 114
12 57 28 86 48 86 5 0 13 19 18 43 9 38 12 42 37 40 37 -2 34 14 -4 22 -30 7
-31 8 -24 49 3 22 7 56 8 74 2 27 6 32 27 32 22 1 23 2 7 11 -15 9 -17 18 -11
52 3 23 17 52 29 65 20 19 24 20 35 7 16 -19 30 -19 30 0 0 8 -5 15 -11 15
-26 0 -58 65 -36 73 21 7 -5 27 -34 27 -27 0 -32 -6 -51 -50 -11 -27 -24 -50
-28 -50 -4 0 -11 -10 -15 -22 -7 -22 -8 -21 -12 6 -5 32 10 68 43 101 12 12
24 28 27 36 5 12 7 12 16 -1 12 -18 18 -12 51 48 14 26 35 51 48 57 24 11 28
20 11 30 -5 4 -18 1 -27 -7 -9 -8 -29 -20 -44 -28 -15 -7 -30 -21 -34 -32 -6
-19 -16 -23 -27 -11 -10 9 31 73 70 109 18 18 33 42 33 54 0 26 61 98 78 92 7
-2 12 6 12 20 0 21 19 59 68 134 6 10 17 29 22 42 5 13 21 47 35 76 14 29 25
60 25 68 0 23 27 41 51 35 12 -3 28 0 36 9 9 9 35 14 73 14 56 0 84 12 58 24
-7 3 8 5 33 3 55 -2 54 6 -6 51 -25 18 -47 43 -51 56 -3 13 -14 26 -25 29 -22
6 -26 37 -5 37 7 0 19 -7 26 -15 7 -8 19 -15 26 -15 8 0 14 -7 14 -15 0 -8 11
-17 25 -21 14 -3 25 -10 25 -14 0 -10 36 -21 75 -23 47 -3 46 -39 -2 -68 -57
-35 -73 -66 -28 -55 30 8 32 -3 6 -25 -16 -15 -17 -23 -8 -72 l10 -56 -41 -45
c-40 -43 -54 -76 -32 -76 6 0 31 21 56 46 25 26 48 44 51 41 3 -3 -23 -43 -57
-89 -70 -92 -115 -181 -124 -245 -7 -51 4 -55 36 -12 13 17 38 46 56 65 18 20
32 45 32 60 0 13 11 47 25 75 14 27 23 54 20 58 -2 5 18 43 45 84 64 98 67
117 8 76 -33 -24 -34 -24 -43 13 -6 23 -2 29 27 44 18 9 27 19 21 21 -29 10 4
53 40 53 22 1 64 26 56 34 -3 3 -35 -6 -72 -19 -41 -14 -69 -19 -73 -13 -8 13
6 26 35 30 18 2 28 14 40 45 12 34 24 47 58 63 23 11 48 20 53 20 7 0 4 10 -5
23 -15 21 -14 23 17 49 28 23 30 27 13 28 -11 0 -40 -14 -65 -30 -25 -16 -53
-30 -62 -30 -11 0 -18 -8 -18 -20 0 -11 7 -20 15 -20 23 0 18 -16 -10 -28 -35
-16 -79 -5 -110 28 -23 24 -24 28 -9 24 11 -3 33 2 49 10 17 9 36 16 43 16 7
0 10 5 6 11 -3 6 -19 9 -35 5 -22 -4 -29 -2 -29 10 0 13 -7 15 -32 10 -105
-18 -105 -18 -111 -2 -9 22 20 33 44 18 25 -16 29 -15 29 8 0 13 -7 20 -20 20
-11 0 -20 5 -20 11 0 17 47 2 71 -22 11 -11 27 -18 36 -15 8 3 19 6 24 6 6 0
9 8 7 18 -2 13 5 18 30 20 l34 3 -4 -42 c-4 -52 12 -61 30 -17 21 51 27 61 47
72 22 13 54 47 55 59 0 4 -19 17 -42 27 -45 20 -40 24 27 21 l40 -1 -32 17
c-38 19 -41 40 -13 76 11 14 23 39 26 56 4 18 13 31 21 31 9 0 13 6 10 14 -8
21 15 36 44 29 21 -6 22 -4 11 9 -15 19 0 33 23 21 32 -18 128 -117 117 -121
-7 -2 -19 -20 -29 -39 -16 -35 -16 -36 8 -54 13 -10 27 -19 32 -19 13 0 7 18
-8 24 -20 7 -19 36 3 52 22 17 27 17 47 -2 9 -9 18 -14 21 -11 3 3 -40 51 -95
106 -59 58 -97 103 -90 106 17 11 122 -5 141 -22 9 -8 27 -14 40 -13 35 3 65
-1 50 -7 -6 -2 -10 -9 -6 -14 7 -13 64 -11 64 2 0 5 5 7 10 4 6 -4 8 -11 5
-16 -8 -12 6 -11 25 1 13 8 12 10 -2 10 -10 0 -18 5 -18 10 0 6 -6 10 -14 10
-8 0 -35 15 -60 34 -26 20 -46 30 -48 24 -3 -8 -11 -9 -24 -3 -10 4 -23 7 -27
6 -4 0 -22 7 -40 16 l-32 17 45 11 c25 6 62 18 84 28 21 9 47 17 57 17 11 0
19 7 19 15 0 17 16 20 25 5 9 -14 21 -13 37 4 8 7 25 17 38 21 37 11 49 23 43
44 -5 19 41 71 62 71 6 0 27 -14 48 -31 20 -17 37 -26 37 -20 0 5 -16 22 -35
37 -36 27 -50 72 -19 60 10 -4 24 5 41 24 31 38 42 38 73 -1 23 -28 77 -65 85
-57 6 5 -39 52 -67 70 -14 10 -29 27 -33 38 -10 30 13 80 36 80 21 0 24 11 9
26 -14 14 5 38 23 28 8 -5 56 -49 107 -97 51 -49 94 -86 97 -84 9 9 -45 84
-100 138 -100 100 -136 182 -63 144 27 -15 28 -14 22 7 -13 41 -12 53 4 49 8
-3 35 -5 60 -6 40 -1 52 -7 93 -47 l47 -46 -35 -12 c-19 -6 -35 -15 -35 -20 0
-16 28 -18 55 -4 15 8 32 14 38 14 5 0 37 -24 71 -53 57 -50 96 -77 111 -77 4
0 -8 18 -25 40 -36 46 -36 86 0 86 11 0 20 -4 20 -8 0 -12 28 -10 49 4 15 9
24 8 45 -5 42 -28 65 -14 31 19 -27 28 -18 44 25 44 22 0 40 4 40 9 0 23 41
20 90 -5 52 -27 52 -27 83 -9 18 10 49 34 70 52 32 28 41 32 53 22 20 -17 47
9 47 46 0 20 6 29 27 36 25 9 27 13 25 67 -2 66 2 77 21 61 10 -8 14 -8 14 0
0 6 7 11 16 11 11 0 13 -6 9 -20 -4 -13 0 -23 14 -32 12 -7 21 -16 21 -20 0
-14 -28 -9 -44 8 -9 8 -16 11 -16 6 0 -24 30 -34 70 -24 32 8 40 7 40 -4 0 -8
-6 -14 -12 -14 -7 -1 9 -10 36 -20 61 -24 71 -17 30 18 -17 15 -36 37 -43 50
-10 19 -9 22 6 22 9 0 28 10 41 23 l24 22 44 -50 c24 -27 44 -55 44 -62 0 -21
40 -26 55 -6 18 24 27 75 16 86 -10 10 6 57 20 57 9 0 19 -26 19 -51 0 -27 15
-24 18 5 1 13 -7 31 -18 41 -11 10 -20 27 -20 37 0 10 -7 32 -15 49 -29 55 9
68 49 17 13 -18 26 -39 28 -47 2 -7 13 -25 26 -39 23 -26 28 -42 13 -42 -5 0
-7 -9 -4 -20 3 -11 9 -20 14 -20 5 0 6 7 3 15 -9 23 15 18 40 -10 13 -14 26
-25 29 -25 14 0 -63 150 -106 207 -52 67 -67 100 -67 144 0 57 63 24 183 -96
43 -43 81 -75 85 -71 4 4 0 13 -8 19 -21 17 -104 146 -107 168 -2 13 2 17 12
13 8 -4 15 -10 15 -15 0 -4 16 -16 35 -25 40 -19 94 -76 97 -102 0 -9 2 -23 2
-31 2 -32 46 -18 48 15 1 10 -2 33 -6 50 -5 25 -2 36 20 59 l26 28 39 -44 c22
-24 58 -68 80 -96 39 -50 59 -65 59 -43 0 5 -6 13 -12 17 -16 10 -58 69 -58
82 0 5 -7 11 -15 15 -8 3 -21 18 -28 33 -6 15 -27 43 -44 62 -38 39 -41 57
-13 66 15 5 36 -8 85 -51 l66 -57 19 21 c11 12 20 26 20 32 0 5 5 10 11 10 6
0 42 15 80 34 79 39 97 38 152 -11 51 -45 74 -33 30 16 -41 46 -83 112 -83
130 0 12 2 21 5 21 5 0 36 -24 64 -50 45 -41 49 -42 43 -13 -2 16 -11 36 -20
46 -8 9 -10 17 -5 17 6 0 13 9 16 20 3 11 1 20 -4 20 -5 0 -9 -4 -9 -10 0 -5
-7 -10 -15 -10 -19 0 -19 10 1 24 12 9 14 21 9 49 -4 20 -11 34 -16 31 -17
-10 -51 7 -45 23 3 8 1 24 -5 35 -6 11 -8 22 -5 25 5 6 40 -29 123 -124 22
-27 62 -72 87 -101 25 -29 46 -57 46 -62 0 -6 4 -10 9 -10 25 0 -54 142 -120
216 -11 11 -19 25 -19 31 0 5 -9 18 -20 28 -11 10 -20 22 -20 27 0 11 53 -16
69 -36 19 -23 29 -20 27 9 -1 19 -6 25 -20 23 -15 -2 -19 4 -21 32 -1 19 0 38
2 43 6 10 41 -10 70 -39 13 -13 27 -24 31 -24 4 0 25 -23 47 -52 22 -28 57
-70 78 -93 20 -23 37 -48 37 -56 0 -8 16 -31 35 -52 19 -21 38 -49 41 -62 8
-32 21 -35 154 -37 99 -1 113 -4 117 -19 5 -16 40 -36 48 -27 10 12 15 48 6
48 -6 0 -11 5 -11 11 0 11 16 9 69 -7 l24 -7 -26 35 c-25 33 -37 78 -19 78 4
0 22 -21 41 -45 34 -46 45 -52 70 -36 12 8 12 12 2 25 -7 9 -11 22 -8 31 4 9
-5 21 -23 32 -30 17 -39 33 -20 33 6 0 10 5 10 11 0 6 -7 8 -16 5 -13 -5 -14
-1 -9 27 14 61 22 62 66 3 19 -25 48 -53 66 -62 17 -10 29 -22 27 -29 -3 -6 4
-20 14 -30 10 -11 21 -28 24 -37 4 -9 17 -22 30 -29 22 -12 23 -11 6 8 -10 11
-18 27 -18 35 0 9 -7 21 -15 28 -8 7 -15 17 -15 22 0 15 -72 122 -91 136 -11
7 -19 17 -19 23 0 5 -8 17 -19 28 -20 20 -18 77 2 64 7 -4 8 0 4 11 -4 10 -3
16 2 14 15 -6 111 -115 111 -127 0 -6 5 -11 10 -11 6 0 10 -7 10 -15 0 -8 7
-15 16 -15 9 0 18 -8 21 -18 2 -10 24 -29 47 -42 l43 -23 20 20 c20 20 20 21
1 51 -11 17 -28 34 -38 37 -10 3 -21 17 -24 31 -4 13 -18 34 -31 46 -14 12
-39 46 -55 75 -17 29 -35 53 -40 53 -5 0 -12 11 -16 24 -3 14 -12 27 -20 30
-20 8 -17 26 4 26 10 0 33 -16 50 -36 30 -33 60 -39 48 -8 -7 18 8 18 44 -1
31 -16 41 -6 15 15 -8 7 -15 17 -15 23 0 6 -8 20 -19 31 -10 12 -22 31 -26 44
-12 42 28 23 75 -35 58 -71 69 -83 81 -83 6 0 9 6 8 13 -3 26 2 37 16 37 8 0
15 -6 15 -12 0 -10 2 -10 8 0 10 15 112 -78 112 -102 0 -9 5 -16 10 -16 6 0
14 -8 17 -17 9 -24 73 -89 73 -75 0 6 -7 17 -15 25 -8 8 -11 17 -8 21 3 3 -2
8 -11 12 -9 3 -16 12 -16 20 0 35 20 13 151 -166 74 -100 117 -152 136 -163
23 -14 14 7 -24 59 -45 60 -61 82 -110 154 -21 30 -70 102 -110 160 -135 195
-164 240 -158 250 3 6 1 10 -4 10 -6 0 -11 7 -11 15 0 8 -11 25 -25 37 -14 12
-25 31 -25 41 0 11 -3 18 -6 14 -9 -9 -52 35 -56 58 -2 16 2 20 26 18 28 -2
66 -28 66 -44 0 -5 26 -35 59 -66 32 -32 81 -91 110 -131 53 -75 130 -162 143
-162 13 0 -83 154 -122 195 -50 53 -92 122 -80 130 6 4 8 11 5 16 -4 5 5 9 18
9 17 0 45 -21 93 -72 103 -107 125 -128 134 -128 5 0 12 -9 15 -20 8 -25 28
-27 21 -2 -2 9 -7 27 -11 40 -6 21 -3 22 40 22 30 0 57 -7 73 -19 15 -10 38
-24 50 -30 22 -12 23 -11 18 7 -4 11 -2 23 4 27 15 9 -10 37 -83 91 -53 39
-56 44 -38 53 29 16 49 13 82 -10 52 -37 33 2 -42 84 -68 74 -99 94 -99 63 0
-28 -17 -25 -40 6 -20 27 -21 34 -10 51 10 17 10 23 -6 34 -9 7 -15 16 -11 20
4 3 15 -1 24 -9 10 -9 43 -24 73 -33 40 -13 67 -30 100 -65 29 -31 65 -55 102
-69 31 -13 65 -32 75 -43 21 -23 93 -62 93 -50 0 4 -21 24 -47 43 -169 125
-203 149 -238 169 -22 12 -47 28 -55 35 -20 17 -185 105 -197 105 -5 0 -29 18
-52 39 -23 22 -55 45 -72 51 -36 15 -37 26 -4 32 16 4 29 0 34 -10 6 -11 10
-11 16 -3 10 17 -29 51 -59 51 -59 0 -181 63 -145 74 47 15 68 16 63 3 -3 -8
2 -19 10 -26 12 -10 14 -9 9 8 -4 16 -1 21 14 21 10 0 24 5 31 12 7 7 49 13
104 15 50 2 96 7 102 13 14 14 29 12 23 -3 -7 -18 91 -45 188 -52 66 -4 41 21
-36 36 -38 7 -58 16 -56 23 3 8 -8 12 -32 13 -69 1 -90 8 -100 30 -13 28 3 34
95 32 38 0 81 2 96 6 36 9 55 -3 31 -21 -24 -18 -3 -18 23 0 12 8 30 15 40 15
48 -2 157 19 164 31 4 7 12 10 18 6 6 -3 13 -2 16 3 3 5 58 12 122 16 63 4
112 11 107 15 -8 8 -115 21 -167 20 -15 0 -35 5 -42 11 -8 6 -28 9 -44 7 -17
-3 -33 -1 -36 4 -3 4 -18 8 -35 8 -37 0 -37 14 0 30 30 12 46 35 35 51 -3 5
-53 8 -115 6 -60 -3 -109 -2 -109 1 0 3 8 11 18 18 15 12 11 13 -30 14 -26 0
-58 -4 -72 -10 -15 -5 -80 -12 -146 -15 -95 -4 -120 -3 -120 8 0 7 20 21 45
32 31 12 44 23 40 32 -3 8 -5 19 -5 25 0 7 -4 7 -12 0 -14 -11 -78 -4 -78 8 0
5 19 25 42 44 23 20 38 39 35 43 -8 7 -114 -23 -132 -37 -15 -12 -123 -47
-183 -59 -65 -14 -62 -14 -62 2 0 7 18 21 40 31 25 11 40 24 40 36 0 9 10 25
23 33 33 23 4 20 -73 -7z m254 -202 c23 -9 20 -24 -4 -24 -11 0 -20 7 -20 15
0 17 2 18 24 9z m-2174 -24 c0 -5 -5 -10 -11 -10 -5 0 -7 5 -4 10 3 6 8 10 11
10 2 0 4 -4 4 -10z m2600 -75 c0 -8 -6 -15 -14 -15 -17 0 -28 14 -19 24 12 12
33 6 33 -9z m-1155 -114 c7 -12 -48 -51 -72 -51 -22 0 -52 20 -38 26 6 2 21
11 35 18 29 17 66 20 75 7z m761 -16 c4 -8 15 -15 25 -15 21 0 26 15 7 24 -7
3 10 4 37 3 42 -2 50 -5 50 -21 0 -16 -8 -21 -45 -23 -25 -2 -51 -5 -58 -8 -7
-2 -15 2 -18 10 -4 8 -12 15 -20 15 -8 0 -14 7 -14 15 0 8 7 15 15 15 9 0 18
-7 21 -15z m-986 -3 c0 -25 -28 -43 -60 -40 l-35 3 35 22 c37 23 60 28 60 15z
m440 -22 c0 -5 -2 -10 -4 -10 -3 0 -8 5 -11 10 -3 6 -1 10 4 10 6 0 11 -4 11
-10z m-1840 -7 c0 -5 -17 -19 -38 -32 l-37 -24 29 32 c29 30 46 39 46 24z
m1985 -28 c0 -14 -8 -21 -28 -23 -22 -3 -27 -7 -22 -23 8 -24 -20 -27 -29 -3
-5 14 -9 13 -31 -4 -27 -22 -101 -28 -122 -10 -35 29 -1 46 135 68 30 5 57 11
60 15 12 12 37 -1 37 -20z m83 -27 c-6 -18 -28 -21 -28 -4 0 9 7 16 16 16 9 0
14 -5 12 -12z m-1288 -57 c0 -5 -13 -14 -30 -19 -28 -10 -29 -10 -17 9 12 19
47 27 47 10z m668 -23 c-2 -19 -10 -24 -44 -26 -27 -2 -45 2 -53 12 -15 17 -9
21 39 29 56 9 62 8 58 -15z m276 12 c14 -5 26 -16 26 -25 0 -12 -4 -13 -24 -3
-14 6 -27 17 -30 24 -6 17 -5 17 28 4z m-1024 -19 c0 -5 -7 -11 -15 -15 -15
-5 -20 5 -8 17 9 10 23 9 23 -2z m323 -8 c-7 -2 -21 -2 -30 0 -10 3 -4 5 12 5
17 0 24 -2 18 -5z m247 -8 c20 -24 -2 -42 -37 -29 -45 16 -39 37 13 43 6 0 17
-6 24 -14z m-731 -18 c-2 -1 -22 -10 -44 -20 l-40 -17 35 30 c22 19 38 26 44
20 5 -5 8 -11 5 -13z m653 -11 c4 -20 1 -23 -21 -22 -42 2 -56 15 -34 32 28
21 50 17 55 -10z m-76 -31 c33 -31 27 -41 -12 -20 -33 17 -106 20 -135 5 -12
-7 -19 -7 -19 -1 0 14 19 24 60 32 62 12 78 10 106 -16z m-2426 -5 c0 -5 -4
-10 -10 -10 -5 0 -10 5 -10 10 0 6 5 10 10 10 6 0 10 -4 10 -10z m2245 -10
c-3 -5 -13 -10 -21 -10 -8 0 -14 5 -14 10 0 6 9 10 21 10 11 0 17 -4 14 -10z
m435 -21 c16 -29 8 -33 -36 -13 -38 16 -38 17 -14 24 37 12 38 12 50 -11z
m-503 5 c-3 -3 -12 -4 -19 -1 -8 3 -5 6 6 6 11 1 17 -2 13 -5z m173 -18 c0
-11 -19 -15 -25 -6 -3 5 1 10 9 10 9 0 16 -2 16 -4z m-162 -27 c13 -20 12 -20
-32 -16 -61 7 -80 20 -41 28 51 11 60 10 73 -12z m-108 2 c0 -5 3 -16 6 -25 5
-12 -1 -16 -24 -16 -60 0 -82 23 -39 40 29 12 57 12 57 1z m1175 -21 c3 -5 1
-10 -4 -10 -6 0 -11 5 -11 10 0 6 2 10 4 10 3 0 8 -4 11 -10z m-1307 -28 c2
-7 -6 -12 -17 -12 -21 0 -27 11 -14 24 9 9 26 2 31 -12z m832 -2 c0 -5 -4 -10
-10 -10 -5 0 -10 5 -10 10 0 6 5 10 10 10 6 0 10 -4 10 -10z m-3781 -26 c3
-16 1 -17 -13 -5 -19 16 -21 34 -3 29 6 -3 14 -13 16 -24z m21 -39 c-7 -9 -15
-13 -19 -10 -3 3 1 10 9 15 21 14 24 12 10 -5z m2439 -9 c-2 -2 -15 -7 -29
-10 l-25 -7 25 20 c14 11 27 15 29 10 1 -6 1 -12 0 -13z m81 20 c0 -2 -9 -6
-20 -9 -11 -3 -20 -1 -20 4 0 5 9 9 20 9 11 0 20 -2 20 -4z m100 -16 c0 -5 -6
-10 -14 -10 -7 0 -30 -11 -50 -25 -24 -16 -48 -24 -69 -22 -25 1 -34 -3 -42
-20 -12 -28 -17 -28 -40 -3 -26 29 -11 41 88 67 93 24 127 28 127 13z m1899
-31 c37 -36 41 -43 27 -51 -12 -7 -24 -5 -39 5 -38 25 -67 57 -67 72 0 27 36
15 79 -26z m-523 10 c3 -6 1 -16 -5 -22 -9 -9 -14 -8 -21 3 -9 15 -4 30 10 30
5 0 12 -5 16 -11z m-2019 -35 c-3 -3 -12 -4 -19 -1 -8 3 -5 6 6 6 11 1 17 -2
13 -5z m2303 -14 c0 -5 -4 -10 -10 -10 -5 0 -10 5 -10 10 0 6 5 10 10 10 6 0
10 -4 10 -10z m-2145 -10 c-3 -5 -13 -10 -21 -10 -8 0 -12 5 -9 10 3 6 13 10
21 10 8 0 12 -4 9 -10z m195 -15 c0 -32 -32 -50 -61 -35 -16 9 -18 14 -8 26 6
8 20 14 30 14 11 0 19 5 19 10 0 6 5 10 10 10 6 0 10 -11 10 -25z m-303 -21
c-28 -15 -44 -14 -34 3 3 5 18 9 34 10 l28 2 -28 -15z m-147 -4 c0 -5 -7 -10
-16 -10 -8 0 -12 5 -9 10 3 6 10 10 16 10 5 0 9 -4 9 -10z m-46 -19 c16 -18
16 -18 -11 -13 -15 3 -22 7 -15 10 6 2 10 8 6 13 -9 15 2 10 20 -10z m240 -7
c10 -25 7 -31 -16 -37 -21 -6 -48 7 -48 23 0 6 37 28 51 29 4 1 10 -6 13 -15z
m61 6 c3 -5 2 -10 -4 -10 -5 0 -13 5 -16 10 -3 6 -2 10 4 10 5 0 13 -4 16 -10z
m-1985 -25 c-7 -8 -17 -15 -22 -15 -6 0 -5 7 2 15 7 8 17 15 22 15 6 0 5 -7
-2 -15z m1830 -19 c0 -8 7 -16 15 -20 27 -10 17 -27 -12 -20 -89 19 -117 38
-70 47 46 9 67 7 67 -7z m1945 -6 c3 -5 1 -10 -4 -10 -6 0 -11 5 -11 10 0 6 2
10 4 10 3 0 8 -4 11 -10z m-2290 -10 c3 -5 -14 -18 -37 -28 -69 -31 -80 -33
-94 -21 -22 18 -16 29 9 20 26 -10 67 6 67 26 0 15 46 18 55 3z m2136 -10 l24
-20 -30 2 c-19 2 -31 9 -33 21 -5 23 10 22 39 -3z m-2281 6 c0 -1 -5 -17 -11
-35 -9 -25 -16 -31 -34 -29 -14 2 -34 -7 -49 -21 -20 -19 -29 -22 -38 -13 -9
9 -9 12 1 12 7 0 27 10 44 23 18 12 39 23 47 22 8 0 16 10 18 23 2 12 8 22 13
22 5 0 9 -2 9 -4z m3300 -11 c0 -8 -4 -15 -10 -15 -5 0 -10 7 -10 15 0 8 5 15
10 15 6 0 10 -7 10 -15z m-2942 -12 c-2 -13 -11 -17 -28 -15 -30 5 -34 8 -25
21 3 6 17 11 31 11 19 0 25 -5 22 -17z m-74 -39 c11 -28 7 -35 -13 -24 -11 5
-29 10 -40 10 -24 0 -81 -46 -81 -66 0 -21 -30 -21 -93 -2 -45 14 -44 27 4 43
67 23 91 27 83 13 -5 -7 7 -1 25 15 38 31 105 38 115 11z m2240 10 c20 -8 21
-24 2 -24 -8 0 -16 7 -20 15 -6 17 -4 18 18 9z m-1659 -34 c3 -5 2 -10 -4 -10
-5 0 -13 5 -16 10 -3 6 -2 10 4 10 5 0 13 -4 16 -10z m2625 -15 c22 -14 40
-29 40 -34 0 -13 -83 32 -88 47 -5 17 4 15 48 -13z m-85 -5 c-19 -21 -35 -18
-35 6 0 9 10 14 27 14 25 0 26 -1 8 -20z m-3588 -13 c3 -4 -8 -7 -25 -7 -18 0
-32 4 -32 8 0 9 47 8 57 -1z m2121 -4 c6 -19 -35 -16 -42 3 -4 11 0 15 16 12
12 -2 23 -9 26 -15z m1497 7 c3 -5 1 -10 -4 -10 -6 0 -11 5 -11 10 0 6 2 10 4
10 3 0 8 -4 11 -10z m-3465 -44 c0 -10 13 -16 37 -18 20 -2 38 -8 40 -15 7
-21 -32 -23 -87 -3 -30 11 -57 20 -60 20 -3 0 4 7 14 15 25 19 56 19 56 1z
m-1920 -16 c0 -5 -7 -10 -16 -10 -8 0 -12 5 -9 10 3 6 10 10 16 10 5 0 9 -4 9
-10z m5040 -67 c50 -67 58 -83 40 -83 -5 0 -10 7 -10 15 0 8 -7 15 -15 15 -8
0 -15 6 -15 13 0 7 -16 31 -35 53 -19 21 -35 45 -35 52 0 21 17 5 70 -65z
m-3393 40 c-9 -9 -19 -14 -23 -11 -10 10 6 28 24 28 15 0 15 -1 -1 -17z m118
-4 c-4 -5 -18 -14 -31 -19 -14 -6 -24 -18 -24 -30 0 -15 -7 -20 -27 -20 -16 0
-35 4 -43 10 -11 7 -8 11 15 20 17 6 37 17 45 25 8 7 26 15 40 18 14 2 26 5
28 6 2 0 0 -4 -3 -10z m2195 1 c0 -5 -2 -10 -4 -10 -3 0 -8 5 -11 10 -3 6 -1
10 4 10 6 0 11 -4 11 -10z m30 -20 c0 -5 -4 -10 -10 -10 -5 0 -10 5 -10 10 0
6 5 10 10 10 6 0 10 -4 10 -10z m-2367 -73 c18 -7 33 -34 24 -43 -7 -7 -87 34
-87 44 0 4 6 14 12 20 10 10 15 10 23 -1 5 -7 18 -16 28 -20z m-1702 -5 c-10
-20 -58 -48 -66 -40 -3 3 -1 17 4 32 8 20 17 26 41 26 26 0 29 -3 21 -18z
m-259 -24 c-7 -7 -12 -8 -12 -2 0 14 12 26 19 19 2 -3 -1 -11 -7 -17z m4828
12 c0 -5 -2 -10 -4 -10 -3 0 -8 5 -11 10 -3 6 -1 10 4 10 6 0 11 -4 11 -10z
m-2950 -25 c10 -12 10 -18 0 -30 -7 -8 -18 -15 -24 -15 -18 0 -77 46 -69 53
12 13 81 7 93 -8z m-420 -14 c0 -17 -130 -67 -179 -69 -40 -2 -10 17 43 27 27
5 58 18 69 30 21 21 67 29 67 12z m2270 -11 c0 -5 -2 -10 -4 -10 -3 0 -8 5
-11 10 -3 6 -1 10 4 10 6 0 11 -4 11 -10z m595 -20 c-3 -5 -1 -10 6 -10 6 0 9
-8 6 -20 -4 -17 -2 -20 14 -15 13 4 21 1 25 -12 3 -10 10 -26 15 -35 7 -14 5
-18 -6 -18 -14 0 -20 12 -16 34 1 4 -10 5 -24 2 -16 -4 -25 -2 -25 6 0 6 -7
20 -16 30 -14 14 -14 20 -4 33 14 17 35 21 25 5z m-3220 -71 c-10 -15 -25 -10
-19 6 4 8 10 12 15 9 5 -3 7 -10 4 -15z m146 11 c5 0 9 -6 9 -14 0 -11 -5 -12
-25 -3 -27 13 -35 33 -9 23 9 -3 20 -6 25 -6z m3594 -25 c35 -35 44 -59 25
-70 -6 -3 -15 6 -20 21 -6 15 -17 32 -24 38 -14 11 -29 46 -20 46 2 0 20 -16
39 -35z m-3509 -10 c-11 -8 -24 -15 -30 -15 -5 0 -1 7 10 15 10 8 24 14 29 14
6 0 1 -6 -9 -14z m84 -25 c13 -8 12 -11 -5 -24 -23 -17 -51 -20 -60 -7 -3 5 5
17 17 25 26 19 28 19 48 6z m-334 -49 c-4 -6 -15 -11 -25 -11 -12 0 -16 7 -15
28 2 39 2 39 25 15 12 -11 18 -26 15 -32z m3399 35 c7 3 19 -4 25 -17 11 -19
10 -25 -6 -36 -16 -12 -19 -12 -22 1 -2 8 -15 22 -30 32 -25 16 -25 18 -7 24
11 4 21 4 23 -1 2 -4 9 -6 17 -3z m-3471 -20 c-6 -16 -24 -23 -24 -8 0 10 22
33 27 28 2 -2 1 -11 -3 -20z m1427 11 c-1 -12 -15 -9 -19 4 -3 6 1 10 8 8 6
-3 11 -8 11 -12z m-1123 -17 l26 0 -21 -21 c-16 -16 -28 -20 -52 -14 -17 4
-31 10 -31 14 0 14 25 31 38 26 8 -3 26 -5 40 -5z m-338 -41 c0 -6 -4 -7 -10
-4 -5 3 -10 11 -10 16 0 6 5 7 10 4 6 -3 10 -11 10 -16z m1752 -1 c-7 -7 -12
-8 -12 -2 0 14 12 26 19 19 2 -3 -1 -11 -7 -17z m-1527 3 c10 -17 -12 -21 -25
-6 -10 12 -10 15 3 15 9 0 18 -4 22 -9z m-2960 -11 c3 -5 -1 -10 -9 -10 -9 0
-16 5 -16 10 0 6 4 10 9 10 6 0 13 -4 16 -10z m72 -16 c-9 -9 -28 6 -21 18 4
6 10 6 17 -1 6 -6 8 -13 4 -17z m5744 13 c-1 -12 -15 -9 -19 4 -3 6 1 10 8 8
6 -3 11 -8 11 -12z m448 -7 c-16 -9 -71 -1 -64 9 2 4 20 5 41 3 24 -3 32 -7
23 -12z m-769 -31 c0 -5 -7 -9 -15 -9 -8 0 -15 7 -15 15 0 9 6 12 15 9 8 -4
15 -10 15 -15z m-3790 -9 c0 -5 -5 -10 -11 -10 -5 0 -7 5 -4 10 3 6 8 10 11
10 2 0 4 -4 4 -10z m4565 -10 c6 -19 8 -19 23 -4 10 10 18 12 20 6 2 -8 11 -8
29 1 22 10 28 8 45 -13 12 -14 17 -32 14 -45 -4 -17 1 -25 22 -34 l27 -13 -28
-14 c-32 -17 -47 -11 -47 18 0 19 -4 20 -54 14 -53 -7 -54 -7 -61 21 -3 15
-15 36 -26 46 -11 10 -17 22 -14 28 11 16 43 9 50 -11z m-5142 -15 c-5 -13
-23 -22 -23 -11 0 15 14 35 21 31 4 -3 6 -12 2 -20z m4387 -4 c0 -5 -6 -14
-14 -20 -16 -13 -32 2 -21 19 8 12 35 13 35 1z m140 -29 c0 -14 -11 -21 -26
-15 -21 8 -17 23 6 23 11 0 20 -4 20 -8z m-3200 -20 c0 -9 -55 -33 -87 -39
-18 -3 -23 1 -23 17 0 16 5 20 18 16 9 -3 31 1 47 8 29 13 45 12 45 -2z m3010
8 c0 -5 -11 -10 -25 -10 -14 0 -25 5 -25 10 0 6 11 10 25 10 14 0 25 -4 25
-10z m-4490 -32 c0 -19 -2 -20 -10 -8 -13 19 -13 30 0 30 6 0 10 -10 10 -22z
m4628 -19 c5 -13 22 -11 38 6 20 20 74 20 74 0 0 -8 -12 -17 -27 -20 -29 -6
-65 -17 -96 -30 -13 -5 -16 -3 -11 8 3 8 1 18 -5 22 -6 3 -11 1 -11 -6 0 -8
-4 -8 -15 1 -8 7 -15 19 -15 27 0 11 7 13 33 8 17 -4 34 -11 35 -16z m-3268
-9 c0 -5 -7 -10 -15 -10 -8 0 -15 5 -15 10 0 6 7 10 15 10 8 0 15 -4 15 -10z
m175 -20 c-3 -5 -11 -10 -16 -10 -6 0 -7 5 -4 10 3 6 11 10 16 10 6 0 7 -4 4
-10z m3035 -5 c10 -13 10 -19 -5 -35 -10 -11 -21 -20 -25 -20 -12 0 -33 48
-26 59 10 16 41 13 56 -4z m-4720 -35 c0 -5 -5 -10 -11 -10 -5 0 -7 5 -4 10 3
6 8 10 11 10 2 0 4 -4 4 -10z m1415 1 c-14 -12 -65 -23 -65 -13 0 16 13 22 44
22 17 0 26 -4 21 -9z m3045 -2 c0 -5 -7 -9 -15 -9 -7 0 -18 -8 -24 -17 -13
-24 -25 -10 -13 14 11 19 52 29 52 12z m-3140 -39 c0 -13 -11 -13 -30 0 -12 8
-11 10 8 10 12 0 22 -4 22 -10z m-2203 -57 c-4 -17 -4 -17 -12 0 -4 9 -4 25 0
35 8 16 8 16 12 0 3 -10 3 -26 0 -35z m5329 30 c7 -10 13 -29 13 -43 l0 -25
-19 25 c-11 14 -24 30 -30 37 -14 17 -12 23 6 23 9 0 23 -8 30 -17z m-4518
-36 c3 -28 -1 -31 -29 -19 -13 5 -14 13 -8 30 11 30 33 23 37 -11z m1540 14
c3 -8 -4 -12 -19 -9 -19 2 -25 -2 -27 -19 -3 -17 -10 -23 -28 -23 -13 0 -24 5
-24 10 0 6 5 10 11 10 7 0 22 12 36 26 24 26 43 28 51 5z m2592 -73 c0 -26 -3
-48 -7 -48 -11 0 -73 93 -73 109 0 8 6 11 15 7 10 -3 15 1 15 11 0 13 5 12 25
-7 20 -19 25 -33 25 -72z m-4060 47 c0 -16 -27 -32 -37 -21 -7 7 16 36 28 36
5 0 9 -7 9 -15z m1195 -5 c-3 -5 -16 -10 -28 -10 -18 0 -19 2 -7 10 20 13 43
13 35 0z m2665 -5 c5 3 13 -1 16 -9 3 -9 12 -16 19 -16 6 0 24 -11 39 -25 14
-13 26 -20 26 -15 0 20 26 8 65 -30 l39 -40 -21 -60 c-17 -50 -18 -61 -7 -71
16 -13 19 -59 4 -59 -5 0 -11 6 -12 13 -6 50 -19 75 -38 70 -21 -6 -60 44 -60
76 0 13 -9 25 -24 31 -13 5 -27 14 -32 21 -5 8 -3 9 6 4 10 -6 12 -4 7 9 -4
10 -10 28 -13 40 -3 12 -16 30 -30 40 -13 11 -24 23 -24 29 0 5 7 4 15 -3 8
-6 19 -9 25 -5z m-4810 -25 c0 -5 -5 -10 -11 -10 -5 0 -7 5 -4 10 3 6 8 10 11
10 2 0 4 -4 4 -10z m1793 -145 c-3 -9 -8 -14 -10 -11 -3 3 -2 9 2 15 9 16 15
13 8 -4z m3033 -12 c-7 -7 -26 7 -26 19 0 6 6 6 15 -2 9 -7 13 -15 11 -17z
m-4694 -34 c-3 -21 -9 -29 -19 -25 -8 3 -18 6 -23 6 -8 0 -20 36 -14 43 2 2
17 4 32 5 26 0 28 -2 24 -29z m1598 11 c0 -5 -4 -10 -10 -10 -5 0 -10 5 -10
10 0 6 5 10 10 10 6 0 10 -4 10 -10z m-1240 -10 c0 -5 -2 -10 -4 -10 -3 0 -8
5 -11 10 -3 6 -1 10 4 10 6 0 11 -4 11 -10z m40 -20 c0 -5 -4 -10 -10 -10 -5
0 -10 5 -10 10 0 6 5 10 10 10 6 0 10 -4 10 -10z m4180 0 c0 -5 -7 -10 -15
-10 -8 0 -15 5 -15 10 0 6 7 10 15 10 8 0 15 -4 15 -10z m-4760 -70 c-13 -32
-30 -40 -30 -15 0 16 31 57 38 50 3 -2 -1 -18 -8 -35z m168 10 c-1 -24 -5 -30
-23 -30 -30 0 -35 8 -23 36 17 36 47 32 46 -6z m412 10 c0 -5 -2 -10 -4 -10
-3 0 -8 5 -11 10 -3 6 -1 10 4 10 6 0 11 -4 11 -10z m1261 -20 c34 0 21 -29
-18 -39 -49 -14 -55 -14 -79 3 -18 14 -17 15 16 30 19 8 41 13 48 11 8 -3 22
-5 33 -5z m-1665 -61 c3 -6 -1 -18 -9 -27 -13 -13 -19 -13 -31 -2 -9 7 -16 18
-15 24 0 7 2 6 6 -1 7 -18 23 -16 23 2 0 17 16 20 26 4z m1359 1 c-3 -5 -10
-10 -16 -10 -5 0 -9 5 -9 10 0 6 7 10 16 10 8 0 12 -4 9 -10z m-1315 -25 c8
-10 10 -19 4 -25 -5 -5 -14 1 -21 16 -12 27 -2 32 17 9z m1425 -4 c-3 -6 -11
-11 -17 -11 -6 0 -6 6 2 15 14 17 26 13 15 -4z m-173 -21 c-18 -16 -44 -30
-57 -30 -14 0 -35 -14 -54 -35 -34 -39 -41 -42 -41 -20 0 9 8 19 18 22 9 4 24
16 33 26 12 15 102 61 129 66 2 1 -10 -12 -28 -29z m-1204 -13 c-7 -14 -13
-17 -16 -9 -6 19 6 44 18 37 7 -4 6 -14 -2 -28z m3421 -1 c8 -9 8 -16 2 -20
-6 -4 -15 3 -21 14 -12 23 2 27 19 6z m-3607 -57 c-2 -13 -7 -28 -12 -32 -9
-10 -23 40 -14 54 11 18 29 3 26 -22z m1433 11 c0 -7 -6 -15 -12 -17 -8 -3
-13 4 -13 17 0 13 5 20 13 18 6 -3 12 -11 12 -18z m1726 -44 c22 -19 24 -24
12 -35 -12 -11 -20 -8 -49 20 -19 18 -34 37 -34 42 0 13 42 -3 71 -27z m182
-16 c25 -16 48 -37 51 -46 4 -10 2 -13 -6 -8 -7 5 -24 7 -39 6 -32 -3 -58 23
-41 40 8 8 7 15 -6 24 -33 26 -2 14 41 -16z m-1108 0 c3 -5 -1 -10 -9 -10 -9
0 -16 5 -16 10 0 6 4 10 9 10 6 0 13 -4 16 -10z m1255 -20 c9 -17 8 -20 -8
-20 -10 0 -27 9 -37 20 -18 20 -17 20 8 20 16 0 30 -8 37 -20z m-2325 0 c-3
-5 -14 -10 -23 -10 -15 0 -15 2 -2 10 20 13 33 13 25 0z m130 -11 c9 -27 1
-33 -41 -36 -38 -2 -41 3 -18 35 19 28 51 29 59 1z m35 11 c0 -5 -4 -10 -10
-10 -5 0 -10 5 -10 10 0 6 5 10 10 10 6 0 10 -4 10 -10z m1870 -21 c0 -5 -4
-9 -10 -9 -5 0 -10 7 -10 16 0 8 5 12 10 9 6 -3 10 -10 10 -16z m33 -24 c-2
-7 8 -22 23 -34 15 -12 24 -24 20 -28 -3 -4 -22 8 -40 26 -29 28 -33 36 -23
52 12 20 29 6 20 -16z m-2283 -5 c0 -5 -4 -10 -10 -10 -5 0 -10 5 -10 10 0 6
5 10 10 10 6 0 10 -4 10 -10z m384 -11 c-3 -5 -10 -7 -15 -3 -5 3 -7 10 -3 15
3 5 10 7 15 3 5 -3 7 -10 3 -15z m-484 -54 c0 -13 -29 -35 -45 -35 -3 0 2 14
10 30 16 30 35 33 35 5z m280 18 c0 -10 -66 -53 -80 -53 -15 0 52 59 68 60 6
0 12 -3 12 -7z m90 -38 c15 -18 -16 -67 -39 -61 -9 2 -26 7 -38 11 -24 6 -37
31 -22 40 5 4 8 2 7 -3 -7 -23 18 -15 29 10 14 28 41 29 63 3z m-160 -50 c0
-8 -4 -15 -10 -15 -5 0 -7 7 -4 15 4 8 8 15 10 15 2 0 4 -7 4 -15z m-70 -15
c0 -5 -4 -10 -10 -10 -5 0 -10 5 -10 10 0 6 5 10 10 10 6 0 10 -4 10 -10z m80
-42 c0 -5 -13 -8 -30 -8 -36 0 -39 11 -7 25 21 10 36 3 37 -17z m-480 -67
c-18 -27 -50 -42 -50 -25 0 16 24 46 43 53 31 12 32 7 7 -28z m170 13 c-18
-21 -50 -37 -50 -25 0 5 12 16 28 24 36 20 37 20 22 1z m218 -13 c12 -16 30
-32 39 -34 10 -2 3 -3 -14 -1 -22 2 -36 -3 -42 -13 -6 -12 -15 -14 -37 -8 -20
6 -24 9 -13 12 24 6 32 43 11 43 -15 1 -14 3 2 15 27 20 29 19 54 -14z m2322
25 c0 -3 -4 -8 -10 -11 -5 -3 -10 -1 -10 4 0 6 5 11 10 11 6 0 10 -2 10 -4z
m-94 -26 c11 -11 -4 -80 -17 -80 -4 0 -14 11 -23 25 -26 40 9 86 40 55z m-247
-52 c54 -50 60 -59 33 -55 -27 4 -53 27 -46 39 4 6 -6 21 -22 34 -16 13 -25
23 -20 24 5 0 30 -19 55 -42z m-2104 18 c13 -9 16 -19 10 -32 -5 -12 -9 -15
-12 -6 -3 6 -16 12 -29 12 -22 0 -23 2 -12 20 15 24 18 24 43 6z m1875 4 c0
-5 -5 -10 -11 -10 -5 0 -7 5 -4 10 3 6 8 10 11 10 2 0 4 -4 4 -10z m183 -76
c53 -42 56 -48 40 -59 -10 -6 -32 -15 -50 -18 -28 -6 -34 -3 -50 23 -9 17 -21
30 -25 30 -4 0 -8 7 -8 15 0 8 -4 15 -10 15 -14 0 -12 27 3 33 27 12 45 5 100
-39z m200 18 c25 -22 21 -34 -10 -30 -22 2 -29 9 -31 32 -4 30 4 29 41 -2z
m-2501 -14 c-7 -7 -12 -8 -12 -2 0 6 3 14 7 17 3 4 9 5 12 2 2 -3 -1 -11 -7
-17z m-127 2 c-3 -5 -11 -10 -16 -10 -6 0 -7 5 -4 10 3 6 11 10 16 10 6 0 7
-4 4 -10z m281 1 c5 -5 20 -11 33 -13 14 -1 26 -9 29 -15 2 -9 -11 -13 -47
-13 -52 0 -60 -6 -38 -29 10 -11 3 -13 -37 -8 -64 6 -90 -16 -80 -70 6 -34 6
-36 -17 -30 -13 4 -32 7 -41 7 -11 0 -18 8 -18 19 0 14 5 18 20 14 14 -4 22 2
29 20 6 14 23 34 38 44 15 9 46 32 67 50 43 36 47 38 62 24z m274 -31 c0 -5
-2 -10 -4 -10 -3 0 -8 5 -11 10 -3 6 -1 10 4 10 6 0 11 -4 11 -10z m-693 -87
c-30 -31 -45 -26 -26 9 16 30 31 40 44 27 6 -6 0 -19 -18 -36z m2488 36 c12
-19 -5 -23 -22 -6 -16 16 -16 17 -1 17 9 0 20 -5 23 -11z m-334 -18 l23 -18
-48 -7 c-31 -5 -52 -3 -62 4 -18 16 -8 32 16 25 10 -3 21 -1 25 5 9 14 20 13
46 -9z m353 -32 c-21 -24 -29 -18 -14 10 6 12 16 19 21 15 6 -4 4 -13 -7 -25z
m-49 -23 c16 -12 17 -16 6 -30 -12 -15 -15 -14 -27 10 -8 14 -14 28 -14 30 0
8 17 3 35 -10z m-2561 -29 c-13 -22 -39 -49 -57 -58 -16 -9 -16 -7 2 27 11 21
26 41 33 45 16 10 30 1 22 -14z m-99 -14 c-4 -10 -11 -30 -15 -45 -11 -37 -41
-86 -57 -92 -9 -4 -10 1 -3 20 24 62 62 134 72 134 6 0 7 -8 3 -17z m2705 -7
c0 -17 -14 -29 -23 -20 -8 8 3 34 14 34 5 0 9 -6 9 -14z m-270 -26 c0 -11 -5
-20 -11 -20 -5 0 -7 5 -4 10 3 6 1 10 -5 10 -6 0 -8 5 -5 10 10 17 25 11 25
-10z m35 10 c-3 -5 -12 -10 -18 -10 -7 0 -6 4 3 10 19 12 23 12 15 0z m170
-10 c-3 -5 -10 -10 -16 -10 -5 0 -9 5 -9 10 0 6 7 10 16 10 8 0 12 -4 9 -10z
m-267 -34 c3 -12 -1 -17 -10 -14 -7 3 -15 13 -16 22 -3 12 1 17 10 14 7 -3 15
-13 16 -22z m242 -11 c7 -9 10 -18 7 -21 -7 -8 -47 14 -47 26 0 15 26 12 40
-5z m-206 -28 c-10 -26 -22 -20 -16 9 3 15 8 22 14 16 5 -5 6 -16 2 -25z m146
8 c7 -8 21 -15 31 -15 26 0 25 -40 -3 -84 -13 -19 -26 -35 -30 -36 -13 0 -68
52 -68 66 0 9 12 14 35 14 38 0 47 14 16 23 -17 4 -20 17 -12 45 3 7 20 0 31
-13z m-2349 -78 c-13 -13 -26 -3 -16 12 3 6 11 8 17 5 6 -4 6 -10 -1 -17z
m2159 -11 c0 -19 -5 -38 -11 -41 -17 -11 -24 4 -11 25 7 12 8 21 2 25 -15 9
-12 25 5 25 10 0 15 -10 15 -34z m-2563 -53 c-9 -9 -20 -13 -24 -9 -4 4 -1 11
7 16 25 16 35 11 17 -7z m2503 -36 c0 -18 -2 -19 -10 -7 -13 20 -13 43 0 35 6
-3 10 -16 10 -28z m-2208 2 c20 -11 20 -13 4 -24 -9 -7 -15 -19 -14 -26 2 -11
-10 -13 -57 -11 -33 2 -62 5 -63 7 -12 12 15 25 51 25 31 0 38 3 27 10 -13 9
-13 11 0 20 19 13 27 12 52 -1z m2446 -21 c-2 -26 1 -33 17 -36 33 -6 40 -20
20 -42 -25 -27 -35 -25 -80 13 -38 33 -38 35 -26 65 11 26 19 32 43 32 27 0
29 -3 26 -32z m-188 -4 c0 -8 -4 -12 -10 -9 -5 3 -10 10 -10 16 0 5 5 9 10 9
6 0 10 -7 10 -16z m-2650 -2 c0 -10 -22 -32 -32 -32 -5 0 -3 9 4 20 13 20 28
27 28 12z m1800 -72 c13 -8 13 -10 -2 -10 -9 0 -20 5 -23 10 -8 13 5 13 25 0z
m678 -7 c2 -8 -5 -13 -17 -13 -21 0 -35 13 -24 24 10 10 36 3 41 -11z m-2123
-3 c3 -5 -1 -10 -9 -10 -9 0 -16 5 -16 10 0 6 4 10 9 10 6 0 13 -4 16 -10z
m2155 -20 c0 -5 -4 -10 -10 -10 -5 0 -10 5 -10 10 0 6 5 10 10 10 6 0 10 -4
10 -10z m-2410 -61 c0 -12 -37 -12 -45 0 -3 5 3 11 12 13 21 5 33 0 33 -13z
m2185 -19 c-3 -5 -11 -10 -16 -10 -6 0 -7 5 -4 10 3 6 11 10 16 10 6 0 7 -4 4
-10z m25 -40 c0 -5 -4 -10 -10 -10 -5 0 -10 5 -10 10 0 6 5 10 10 10 6 0 10
-4 10 -10z m-2320 -40 c0 -5 -6 -10 -14 -10 -8 0 -18 5 -21 10 -3 6 3 10 14
10 12 0 21 -4 21 -10z m1978 -8 c6 -18 -15 -14 -22 4 -4 10 -1 14 6 12 6 -2
14 -10 16 -16z m-1881 2 c-3 -3 -12 -4 -19 -1 -8 3 -5 6 6 6 11 1 17 -2 13 -5z
m150 -20 c-3 -3 -12 -4 -19 -1 -8 3 -5 6 6 6 11 1 17 -2 13 -5z m908 -4 c8
-13 -5 -13 -25 0 -13 8 -13 10 2 10 9 0 20 -4 23 -10z m635 6 c0 -3 -4 -8 -10
-11 -5 -3 -10 -1 -10 4 0 6 5 11 10 11 6 0 10 -2 10 -4z m-2140 -15 c0 -11
-39 -41 -52 -41 -15 0 -8 29 10 39 22 13 42 14 42 2z m1290 -1 c0 -5 -4 -10
-9 -10 -6 0 -13 5 -16 10 -3 6 1 10 9 10 9 0 16 -4 16 -10z m720 -10 c0 -5 -2
-10 -4 -10 -3 0 -8 5 -11 10 -3 6 -1 10 4 10 6 0 11 -4 11 -10z m854 -16 c5
-13 9 -14 21 -4 12 10 15 9 15 -5 0 -12 5 -15 16 -11 13 5 15 1 9 -21 -4 -16
-8 -29 -10 -31 -6 -7 -125 41 -136 54 -9 11 -5 14 25 14 20 0 36 5 36 10 0 16
17 12 24 -6z m-338 -25 c3 -5 -9 -9 -25 -9 -17 0 -31 4 -31 9 0 5 11 9 25 9
14 0 28 -4 31 -9z m-1829 -25 c-3 -3 -12 -4 -19 -1 -8 3 -5 6 6 6 11 1 17 -2
13 -5z m1893 -42 c0 -8 -6 -12 -14 -9 -8 3 -16 1 -18 -5 -5 -15 -28 -1 -28 18
0 8 7 14 15 14 9 0 12 6 8 18 -6 15 -4 15 15 -2 12 -11 22 -26 22 -34z m-67
-27 c-4 -11 2 -15 20 -15 23 0 24 -2 17 -36 -11 -49 -21 -57 -64 -49 -30 6
-35 11 -31 26 6 18 -20 52 -46 61 -7 2 -9 10 -5 16 5 8 21 10 45 6 24 -4 41
-2 45 5 10 16 26 4 19 -14z m-2783 -54 c0 -13 -50 -71 -61 -71 -12 0 1 31 25
57 22 24 36 29 36 14z m210 -40 c-6 -12 -18 -21 -26 -21 -27 0 -9 -25 22 -31
23 -4 15 -7 -35 -13 -35 -4 -65 -5 -68 -3 -2 3 21 26 53 51 59 48 74 53 54 17z
m298 -13 c-5 -14 -55 -21 -78 -11 -10 4 -6 8 15 13 48 12 67 11 63 -2z m2160
-13 c41 -19 52 -29 52 -48 0 -12 4 -27 9 -32 6 -6 5 -16 -3 -27 -12 -16 -16
-15 -59 6 -90 46 -118 80 -93 114 12 18 34 15 94 -13z m-2033 -5 c-3 -5 -15
-10 -26 -10 -10 0 -19 5 -19 10 0 6 12 10 26 10 14 0 23 -4 19 -10z m2235 0
c0 -5 -4 -10 -10 -10 -5 0 -10 5 -10 10 0 6 5 10 10 10 6 0 10 -4 10 -10z
m-350 -75 c7 -8 23 -15 36 -15 14 0 42 -11 64 -25 22 -14 43 -25 48 -25 5 0
19 -11 32 -25 22 -23 23 -27 8 -42 -15 -15 -19 -15 -51 0 -19 10 -37 24 -41
32 -3 8 -12 15 -21 15 -8 0 -15 5 -15 10 0 6 5 10 10 10 6 0 10 5 10 11 0 7
-11 8 -31 4 -24 -5 -35 -2 -50 14 -11 12 -29 21 -39 21 -37 0 -22 21 21 29 4
0 12 -6 19 -14z m-2286 -25 c-22 -9 -29 -6 -20 9 4 6 14 7 23 4 15 -6 14 -7
-3 -13z m156 0 c0 -5 -13 -10 -29 -10 -17 0 -33 5 -36 10 -4 6 8 10 29 10 20
0 36 -4 36 -10z m37 4 c-3 -3 -12 -4 -19 -1 -8 3 -5 6 6 6 11 1 17 -2 13 -5z
m-712 -23 c3 -5 1 -12 -5 -16 -5 -3 -10 1 -10 9 0 18 6 21 15 7z m321 -8 c-1
-16 10 -18 98 -18 70 0 100 -4 103 -12 5 -14 -110 -18 -205 -6 l-53 6 22 23
c27 28 37 30 35 7z m294 -23 c0 -5 -12 -10 -27 -10 -22 0 -25 2 -13 10 20 13
40 13 40 0z m37 -6 c-3 -3 -12 -4 -19 -1 -8 3 -5 6 6 6 11 1 17 -2 13 -5z
m-372 -52 c-7 -7 -47 -30 -74 -42 -39 -17 -37 -2 4 40 36 37 40 39 57 23 10
-9 16 -18 13 -21z m825 -2 c0 -5 -12 -10 -27 -10 -22 0 -25 2 -13 10 20 13 40
13 40 0z m100 -10 c0 -5 -7 -10 -16 -10 -8 0 -12 5 -9 10 3 6 10 10 16 10 5 0
9 -4 9 -10z m1200 -89 c0 -5 3 -16 6 -25 7 -19 -26 -22 -44 -4 -20 20 -14 38
13 38 14 0 25 -4 25 -9z m-540 -77 c0 -2 -9 -4 -20 -4 -11 0 -20 4 -20 9 0 5
9 7 20 4 11 -3 20 -7 20 -9z m0 -109 c0 -8 -7 -15 -15 -15 -9 0 -12 6 -9 15 4
8 10 15 15 15 5 0 9 -7 9 -15z m-1705 -25 c3 -6 0 -12 -7 -15 -26 -9 -209 -21
-214 -13 -6 10 25 17 112 27 100 12 102 12 109 1z m675 0 c0 -5 -2 -10 -4 -10
-3 0 -8 5 -11 10 -3 6 -1 10 4 10 6 0 11 -4 11 -10z m95 -10 c3 -5 1 -10 -4
-10 -6 0 -11 5 -11 10 0 6 2 10 4 10 3 0 8 -4 11 -10z m345 -60 c0 -5 -9 -10
-20 -10 -11 0 -20 5 -20 10 0 6 9 10 20 10 11 0 20 -4 20 -10z m578 -10 c7 0
11 -4 8 -9 -7 -11 -54 -2 -63 12 -4 6 2 8 18 4 13 -4 30 -7 37 -7z m-858 -30
c0 -5 -4 -10 -10 -10 -5 0 -10 5 -10 10 0 6 5 10 10 10 6 0 10 -4 10 -10z
m970 -16 c0 -2 -9 -4 -20 -4 -11 0 -20 4 -20 9 0 5 9 7 20 4 11 -3 20 -7 20
-9z m-835 -4 c3 -5 -1 -10 -9 -10 -9 0 -16 5 -16 10 0 6 4 10 9 10 6 0 13 -4
16 -10z m925 -15 c0 -7 8 -19 18 -24 15 -9 14 -10 -9 -11 -14 0 -34 9 -43 19
-17 18 -17 19 1 24 31 8 33 7 33 -8z m-870 -5 c0 -5 -2 -10 -4 -10 -3 0 -8 5
-11 10 -3 6 -1 10 4 10 6 0 11 -4 11 -10z m120 -15 c16 -19 2 -19 -41 0 l-34
14 31 1 c17 0 37 -7 44 -15z m70 -25 c0 -5 -4 -10 -9 -10 -6 0 -13 5 -16 10
-3 6 1 10 9 10 9 0 16 -4 16 -10z m780 -10 c12 -8 11 -10 -7 -10 -12 0 -25 5
-28 10 -8 13 15 13 35 0z m750 1 c0 -5 -7 -14 -15 -21 -12 -10 -15 -10 -15 2
0 8 3 18 7 21 9 10 23 9 23 -2z m-1324 -41 c15 -6 24 -13 22 -16 -8 -8 -58 7
-58 17 0 11 3 11 36 -1z m123 -42 c13 -5 21 -11 18 -14 -8 -8 -87 18 -87 28 0
9 18 5 69 -14z m-2659 -1049 c-7 -22 -17 -39 -23 -39 -5 0 -6 8 -2 18 4 9 12
33 17 52 6 19 13 29 16 21 2 -7 -1 -31 -8 -52z m50 -110 c-18 -42 -25 -28 -9
18 7 21 14 32 17 25 2 -7 -2 -26 -8 -43z"/>
<path fill="#535a72" d="M5005 4189 c-11 -17 1 -21 15 -4 8 9 8 15 2 15 -6 0 -14 -5 -17 -11z"/>
<path fill="#535a72" d="M4485 3790 c3 -5 11 -10 16 -10 6 0 7 5 4 10 -3 6 -11 10 -16 10 -6
0 -7 -4 -4 -10z"/>
<path fill="#535a72" d="M5889 6554 c-12 -14 -11 -16 5 -13 11 2 21 10 24 17 5 17 -13 15 -29
-4z"/>
<path fill="#535a72" d="M9705 6560 c-3 -5 1 -10 9 -10 8 0 18 5 21 10 3 6 -1 10 -9 10 -8 0
-18 -4 -21 -10z"/>
<path fill="#535a72" d="M4988 6493 c-27 -28 -36 -53 -20 -53 16 0 54 48 50 65 -2 13 -8 11
-30 -12z"/>
<path fill="#535a72" d="M5858 6493 c6 -2 18 -2 25 0 6 3 1 5 -13 5 -14 0 -19 -2 -12 -5z"/>
<path fill="#535a72" d="M6387 6493 c-10 -9 -9 -23 2 -23 5 0 11 7 15 15 5 15 -5 20 -17 8z"/>
<path fill="#535a72" d="M8913 6473 c-7 -3 -13 -12 -13 -21 0 -15 2 -15 17 1 18 18 16 27 -4
20z"/>
<path fill="#535a72" d="M6469 6451 l-24 -20 23 -1 c12 0 25 7 29 15 9 25 -2 27 -28 6z"/>
<path fill="#535a72" d="M9215 6390 c-3 -5 3 -10 14 -10 11 0 23 5 26 10 3 6 -3 10 -14 10
-11 0 -23 -4 -26 -10z"/>
<path fill="#535a72" d="M6382 6379 c-13 -5 -28 -7 -33 -4 -5 3 -21 -3 -36 -13 -16 -11 -52
-34 -80 -52 -29 -19 -53 -35 -53 -37 0 -2 6 -1 13 3 9 5 9 4 0 -6 -9 -10 -6
-17 14 -34 33 -25 48 -28 79 -14 15 7 24 20 24 34 0 14 8 25 20 29 11 3 28 16
37 29 10 13 28 28 41 35 23 12 30 41 10 40 -7 0 -24 -4 -36 -10z"/>
<path fill="#535a72" d="M8255 6260 c-3 -5 -1 -10 4 -10 6 0 11 5 11 10 0 6 -2 10 -4 10 -3 0
-8 -4 -11 -10z"/>
<path fill="#535a72" d="M8182 6218 c-23 -11 -40 -23 -37 -26 7 -7 85 29 85 40 0 10 3 11 -48
-14z"/>
<path fill="#535a72" d="M4877 6223 c-4 -3 -7 -11 -7 -17 0 -6 5 -5 12 2 6 6 9 14 7 17 -3 3
-9 2 -12 -2z"/>
<path fill="#535a72" d="M5395 6106 c-28 -36 -56 -63 -62 -61 -20 7 -58 -53 -98 -155 -21 -52
-50 -111 -64 -130 -36 -48 -73 -119 -69 -132 2 -6 17 9 33 33 39 55 43 35 16
-73 -24 -92 -26 -121 -11 -149 17 -31 30 -22 30 20 0 22 5 43 11 47 7 4 9 27
5 68 -7 57 -5 62 15 71 27 12 41 42 15 32 -9 -4 -16 -4 -16 0 0 14 56 93 66
93 6 0 19 9 29 20 10 12 24 19 30 16 22 -8 73 73 60 94 -5 8 -18 1 -42 -22
-28 -27 -35 -30 -43 -18 -16 25 -7 55 18 58 26 4 29 19 5 24 -15 3 -14 5 5 10
13 4 28 1 37 -8 12 -12 18 -12 35 -2 22 14 25 24 10 33 -15 9 -2 25 15 18 11
-4 13 -1 8 13 -5 13 -3 16 10 11 13 -5 15 0 10 29 -4 22 -2 34 6 34 6 0 11 -5
11 -12 0 -6 3 -9 6 -5 7 7 -17 107 -26 107 -3 0 -28 -29 -55 -64z m-120 -246
c3 -5 1 -10 -4 -10 -6 0 -11 5 -11 10 0 6 2 10 4 10 3 0 8 -4 11 -10z"/>
<path fill="#535a72" d="M7470 6155 c-25 -14 -25 -14 13 -15 26 0 37 4 35 12 -6 18 -20 19
-48 3z"/>
<path fill="#535a72" d="M8075 6150 c-3 -5 -2 -10 4 -10 5 0 13 5 16 10 3 6 2 10 -4 10 -5 0
-13 -4 -16 -10z"/>
<path fill="#535a72" d="M8030 6120 c-8 -5 -11 -12 -7 -16 4 -4 15 0 24 9 18 18 8 23 -17 7z"/>
<path fill="#535a72" d="M4778 6096 c-19 -14 -23 -32 -10 -40 5 -3 16 8 26 25 18 31 12 37
-16 15z"/>
<path fill="#535a72" d="M6195 6059 c-4 -6 -5 -13 -2 -16 7 -7 27 6 27 18 0 12 -17 12 -25 -2z"/>
<path fill="#535a72" d="M4750 6029 c0 -6 -9 -18 -21 -28 -16 -12 -19 -23 -14 -44 4 -15 13
-27 20 -27 19 0 38 27 29 42 -5 7 -7 25 -5 40 1 16 0 28 -3 28 -3 0 -6 -5 -6
-11z"/>
<path fill="#535a72" d="M6172 5983 c-23 -34 -34 -63 -24 -63 13 0 72 65 72 78 0 22 -28 13
-48 -15z"/>
<path fill="#535a72" d="M4981 5959 c-19 -22 -30 -43 -26 -47 7 -7 75 64 75 80 0 16 -16 6
-49 -33z"/>
<path fill="#535a72" d="M12767 5944 c-4 -4 -7 -16 -7 -26 0 -16 3 -17 21 -8 11 6 19 16 16
23 -4 14 -21 20 -30 11z"/>
<path fill="#535a72" d="M10685 5910 c-6 -10 45 -40 69 -40 28 0 27 19 -1 25 -15 4 -36 10
-45 15 -10 6 -19 6 -23 0z"/>
<path fill="#535a72" d="M6337 5884 c-16 -9 -26 -18 -24 -21 8 -8 77 17 77 28 0 13 -21 10
-53 -7z"/>
<path fill="#535a72" d="M6027 5873 c-14 -13 -6 -21 27 -25 27 -3 36 0 39 14 4 15 -1 18 -27
18 -18 0 -36 -3 -39 -7z"/>
<path fill="#535a72" d="M10855 5835 c22 -14 45 -25 50 -25 6 0 49 -16 95 -35 94 -39 157 -55
146 -36 -4 6 -13 11 -19 11 -7 0 -23 7 -36 17 -27 18 -236 93 -260 93 -9 0 2
-12 24 -25z"/>
<path fill="#535a72" d="M6351 5806 c-7 -8 -11 -37 -9 -68 l4 -53 17 37 c27 59 18 121 -12 84z"/>
<path fill="#535a72" d="M4688 5794 c-29 -15 -54 -51 -43 -62 3 -3 22 11 42 31 41 41 42 52 1
31z"/>
<path fill="#535a72" d="M4500 5694 c0 -8 5 -12 10 -9 6 4 8 11 5 16 -9 14 -15 11 -15 -7z"/>
<path fill="#535a72" d="M4836 5620 c-88 -85 -124 -136 -108 -152 12 -12 92 48 92 70 0 6 7
12 15 12 8 0 15 6 15 13 0 7 9 18 20 25 11 7 17 18 14 27 -4 9 3 23 16 33 13
10 21 25 18 33 -3 9 -29 -10 -82 -61z"/>
<path fill="#535a72" d="M4688 5596 c-13 -19 -42 -59 -65 -88 -30 -38 -48 -76 -64 -133 -24
-84 -29 -189 -9 -209 19 -19 31 16 26 78 -3 42 0 63 9 73 8 7 25 51 39 97 20
65 34 92 64 122 52 53 67 80 46 88 -23 9 -22 9 -46 -28z"/>
<path fill="#535a72" d="M6044 5459 c-19 -22 -19 -22 3 -10 24 12 39 31 25 31 -5 0 -17 -10
-28 -21z"/>
<path fill="#535a72" d="M5963 5445 c-32 -14 -45 -35 -20 -35 14 1 62 38 56 44 -2 3 -19 -2
-36 -9z"/>
<path fill="#535a72" d="M11307 5409 c7 -7 15 -10 18 -7 3 3 -2 9 -12 12 -14 6 -15 5 -6 -5z"/>
<path fill="#535a72" d="M5951 5384 c-13 -13 -22 -26 -19 -29 7 -7 58 34 58 46 0 14 -13 9
-39 -17z"/>
<path fill="#535a72" d="M4755 5370 c-3 -5 -16 -10 -27 -10 -26 0 -88 -46 -88 -66 0 -19 13
-18 63 7 50 25 88 59 81 70 -7 12 -21 11 -29 -1z"/>
<path fill="#535a72" d="M4724 5284 c3 -8 -6 -35 -20 -59 l-25 -44 33 -16 c18 -9 45 -31 60
-48 34 -40 36 -22 3 27 -26 39 -32 70 -15 81 16 10 12 40 -8 58 -23 21 -36 22
-28 1z"/>
<path fill="#535a72" d="M10285 5120 c3 -5 8 -10 11 -10 2 0 4 5 4 10 0 6 -5 10 -11 10 -5 0
-7 -4 -4 -10z"/>
<path fill="#535a72" d="M4480 5110 c0 -5 7 -10 16 -10 8 0 12 5 9 10 -3 6 -10 10 -16 10 -5
0 -9 -4 -9 -10z"/>
<path fill="#535a72" d="M4565 5110 c-3 -5 -1 -10 4 -10 6 0 11 5 11 10 0 6 -2 10 -4 10 -3 0
-8 -4 -11 -10z"/>
<path fill="#535a72" d="M10370 5110 c0 -5 5 -10 11 -10 5 0 7 5 4 10 -3 6 -8 10 -11 10 -2 0
-4 -4 -4 -10z"/>
<path fill="#535a72" d="M3390 4959 c0 -5 5 -7 10 -4 6 3 10 8 10 11 0 2 -4 4 -10 4 -5 0 -10
-5 -10 -11z"/>
<path fill="#535a72" d="M10430 4785 c0 -8 5 -15 12 -15 6 0 21 -8 32 -17 15 -14 14 -11 -4
14 -28 35 -40 41 -40 18z"/>
<path fill="#535a72" d="M3506 4696 c3 -9 11 -16 16 -16 13 0 5 23 -10 28 -7 2 -10 -2 -6 -12z"/>
<path fill="#535a72" d="M9567 4694 c-13 -13 -7 -24 14 -24 11 0 19 5 17 12 -5 14 -22 21 -31
12z"/>
<path fill="#535a72" d="M3492 4643 c-9 -3 -4 -10 14 -19 31 -17 43 -11 24 11 -13 16 -17 17
-38 8z"/>
<path fill="#535a72" d="M9867 4643 c-36 -6 -29 -28 9 -28 19 0 30 6 32 18 2 9 0 16 -5 16 -4
-1 -21 -4 -36 -6z"/>
<path fill="#535a72" d="M3500 4601 c1 -3 12 -19 25 -36 l25 -30 0 31 c0 26 -5 33 -25 36 -14
3 -25 2 -25 -1z"/>
<path fill="#535a72" d="M9003 4566 c25 -21 36 -24 95 -21 63 2 122 20 122 35 0 4 -21 0 -46
-8 -41 -13 -49 -13 -80 2 -19 9 -54 16 -77 16 l-42 0 28 -24z"/>
<path fill="#535a72" d="M9381 4498 c-18 -12 -50 -22 -70 -23 -118 -7 -211 -46 -177 -74 18
-15 71 -2 164 41 35 16 78 32 95 35 l32 6 -25 -29 c-14 -15 -36 -37 -50 -48
-48 -38 -96 -93 -113 -129 -10 -19 -35 -50 -57 -67 -62 -49 -45 -81 24 -45 70
37 61 7 -24 -77 -73 -72 -82 -90 -52 -108 16 -10 16 -10 0 -20 -10 -6 -18 -18
-18 -25 0 -25 28 -17 52 15 13 18 31 30 45 30 33 0 29 -14 -16 -57 -86 -84
-132 -153 -101 -153 6 0 39 31 74 68 35 37 80 74 100 82 20 7 36 17 36 21 0 4
20 22 45 40 25 18 45 36 45 41 0 11 -51 -1 -70 -17 -8 -7 -23 -10 -32 -6 -14
5 -7 14 35 45 28 22 72 45 97 53 53 16 74 33 42 33 -23 0 -30 16 -11 22 9 3 9
9 0 26 -9 17 -17 20 -42 15 -20 -4 -34 -1 -39 7 -9 15 -46 -2 -72 -34 l-18
-21 3 25 c1 19 -3 26 -21 28 -18 3 -22 8 -16 25 10 35 78 108 149 162 31 25
75 96 75 123 0 19 -52 13 -89 -10z m-136 -422 c-19 -29 -35 -34 -35 -12 0 15
40 49 48 42 2 -3 -4 -16 -13 -30z"/>
<path fill="#535a72" d="M3510 4361 c0 -5 9 -7 20 -4 11 3 20 7 20 9 0 2 -9 4 -20 4 -11 0
-20 -4 -20 -9z"/>
<path fill="#535a72" d="M8648 4345 c8 -30 21 -29 45 2 l18 23 -34 0 c-33 0 -35 -2 -29 -25z"/>
<path fill="#535a72" d="M8726 4265 c3 -7 16 -17 30 -24 31 -14 114 -15 114 -1 0 6 -13 10
-28 10 -16 0 -49 6 -75 14 -35 10 -44 11 -41 1z"/>
<path fill="#535a72" d="M9768 4232 c-21 -2 -38 -7 -38 -13 0 -13 67 -11 75 2 9 14 6 15 -37
11z"/>
<path fill="#535a72" d="M9675 4200 c-3 -5 -1 -10 4 -10 6 0 11 5 11 10 0 6 -2 10 -4 10 -3 0
-8 -4 -11 -10z"/>
<path fill="#535a72" d="M8140 4190 c20 -13 40 -13 40 0 0 6 -12 10 -27 10 -22 0 -25 -2 -13
-10z"/>
<path fill="#535a72" d="M7940 4110 c0 -5 5 -10 11 -10 5 0 7 5 4 10 -3 6 -8 10 -11 10 -2 0
-4 -4 -4 -10z"/>
<path fill="#535a72" d="M7580 3910 c0 -5 5 -10 11 -10 5 0 7 5 4 10 -3 6 -8 10 -11 10 -2 0
-4 -4 -4 -10z"/>
<path fill="#535a72" d="M7060 3895 c-8 -9 -8 -15 -2 -15 12 0 26 19 19 26 -2 2 -10 -2 -17
-11z"/>
<path fill="#535a72" d="M9424 3821 c16 -18 17 -23 3 -50 -19 -38 -12 -45 24 -24 31 19 38 40
14 49 -8 3 -17 14 -20 25 -4 10 -13 19 -22 19 -14 0 -14 -2 1 -19z"/>
<path fill="#535a72" d="M9168 3799 c-10 -5 -18 -15 -18 -21 0 -6 -23 -39 -50 -74 -31 -40
-45 -64 -36 -64 8 0 18 5 21 10 10 15 25 12 25 -6 0 -9 7 -14 18 -12 13 2 18
16 22 53 3 31 14 62 28 79 33 42 28 58 -10 35z"/>
<path fill="#535a72" d="M8057 3743 c-20 -3 -27 -9 -25 -21 5 -24 31 -26 56 -4 19 16 20 35 3
31 -3 -1 -19 -4 -34 -6z"/>
<path fill="#535a72" d="M6761 3647 c2 -1 13 -9 24 -17 19 -14 19 -14 6 3 -7 9 -18 17 -24 17
-6 0 -8 -1 -6 -3z"/>
<path fill="#535a72" d="M9126 3594 c-8 -21 -1 -28 18 -21 9 4 13 13 10 22 -8 20 -20 19 -28
-1z"/>
<path fill="#535a72" d="M9134 3473 c1 -80 17 -87 30 -14 6 37 5 55 -4 66 -22 26 -26 17 -26
-52z"/>
<path fill="#535a72" d="M9418 3413 c7 -3 16 -2 19 1 4 3 -2 6 -13 5 -11 0 -14 -3 -6 -6z"/>
<path fill="#535a72" d="M9166 3393 c-3 -3 -1 -14 5 -25 5 -10 7 -23 4 -28 -7 -12 30 -50 49
-50 26 0 28 19 7 53 -21 33 -55 60 -65 50z"/>
<path fill="#535a72" d="M8450 3363 c0 -5 4 -15 10 -23 11 -18 25 -7 17 15 -6 15 -27 21 -27
8z"/>
<path fill="#535a72" d="M10619 3273 c-13 -16 -12 -17 4 -4 16 13 21 21 13 21 -2 0 -10 -8
-17 -17z"/>
<path fill="#535a72" d="M9202 3247 c-23 -24 -29 -47 -12 -47 13 0 50 41 50 57 0 19 -14 16
-38 -10z"/>
<path fill="#535a72" d="M6182 3206 c21 -20 43 -36 50 -36 14 1 -35 45 -67 61 -11 6 -3 -6 17
-25z"/>
<path fill="#535a72" d="M8427 2922 c-19 -20 -23 -37 -7 -27 10 6 33 45 27 45 -2 0 -11 -8
-20 -18z"/>
<path fill="#535a72" d="M8294 2789 c-9 -15 -10 -116 -1 -125 14 -14 21 7 25 71 4 62 -6 83
-24 54z"/>
<path fill="#535a72" d="M6120 2760 c0 -5 5 -10 10 -10 6 0 10 5 10 10 0 6 -4 10 -10 10 -5 0
-10 -4 -10 -10z"/>
<path fill="#535a72" d="M8365 2730 c-3 -5 -1 -10 4 -10 6 0 11 5 11 10 0 6 -2 10 -4 10 -3 0
-8 -4 -11 -10z"/>
<path fill="#535a72" d="M8250 2538 c-6 -29 -13 -84 -16 -123 -2 -38 -6 -77 -9 -85 -2 -8 2
-44 8 -80 13 -68 32 -80 32 -21 0 27 5 36 25 43 34 12 39 25 28 65 -5 19 -6
47 -3 63 5 23 2 30 -14 35 -19 6 -21 14 -21 81 0 41 -4 74 -9 74 -5 0 -15 -24
-21 -52z"/>
<path fill="#535a72" d="M8330 2500 c0 -5 5 -10 11 -10 5 0 7 5 4 10 -3 6 -8 10 -11 10 -2 0
-4 -4 -4 -10z"/>
<path fill="#535a72" d="M6540 2109 c0 -5 5 -7 10 -4 6 3 10 8 10 11 0 2 -4 4 -10 4 -5 0 -10
-5 -10 -11z"/>
<path fill="#535a72" d="M8294 2084 c4 -16 14 -34 22 -40 7 -6 17 -33 21 -60 5 -36 8 -43 14
-29 9 25 2 59 -22 107 -25 49 -44 61 -35 22z"/>
<path fill="#535a72" d="M4855 1990 c3 -5 11 -10 16 -10 6 0 7 5 4 10 -3 6 -11 10 -16 10 -6
0 -7 -4 -4 -10z"/>
<path fill="#535a72" d="M8326 1895 c4 -9 0 -15 -10 -15 -9 0 -16 -5 -16 -11 0 -6 8 -9 18 -7
18 3 31 48 13 48 -6 0 -8 -7 -5 -15z"/>
<path fill="#535a72" d="M4670 1800 c0 -5 7 -10 15 -10 8 0 15 5 15 10 0 6 -7 10 -15 10 -8 0
-15 -4 -15 -10z"/>
<path fill="#535a72" d="M4710 1770 c0 -5 5 -10 10 -10 6 0 10 5 10 10 0 6 -4 10 -10 10 -5 0
-10 -4 -10 -10z"/>
<path fill="#535a72" d="M2630 1749 c0 -5 5 -7 10 -4 6 3 10 8 10 11 0 2 -4 4 -10 4 -5 0 -10
-5 -10 -11z"/>
<path fill="#535a72" d="M3040 1740 c-8 -5 -11 -12 -7 -16 4 -4 13 -2 19 4 15 15 7 24 -12 12z"/>
<path fill="#535a72" d="M3400 1720 c0 -5 4 -10 9 -10 6 0 13 5 16 10 3 6 -1 10 -9 10 -9 0
-16 -4 -16 -10z"/>
<path fill="#535a72" d="M3365 1680 c-3 -5 -1 -10 4 -10 6 0 11 5 11 10 0 6 -2 10 -4 10 -3 0
-8 -4 -11 -10z"/>
<path fill="#535a72" d="M5011 1394 c-10 -13 -26 -24 -34 -24 -23 0 -91 -99 -73 -106 8 -3 35
17 66 50 58 61 79 68 36 12 -27 -36 -33 -52 -16 -41 17 10 82 117 75 123 -14
14 -36 8 -54 -14z"/>
<path fill="#535a72" d="M4956 1243 c-6 -14 -5 -15 5 -6 7 7 10 15 7 18 -3 3 -9 -2 -12 -12z"/>
<path fill="#535a72" d="M5090 90 c0 -5 5 -10 11 -10 5 0 7 5 4 10 -3 6 -8 10 -11 10 -2 0 -4
-4 -4 -10z"/>
<path fill="#535a72" d="M5070 45 c7 -9 15 -13 17 -11 7 7 -7 26 -19 26 -6 0 -6 -6 2 -15z"/>
<path fill="#535a72" d="M465 40 c-4 -6 -4 -10 -1 -10 2 0 11 -3 20 -6 9 -3 16 -2 16 4 0 14
-28 23 -35 12z"/>
</g>
</svg>
